<?xml version="1.0" encoding="UTF-8" standalone="no"?><!-- Generator: Gravit.io --><svg xmlns="http://www.w3.org/2000/svg" xmlns:xlink="http://www.w3.org/1999/xlink" style="isolation:isolate" viewBox="0 0 350 220" width="350pt" height="220pt"><defs><clipPath id="_clipPath_XPVUMGl0opXVoWKgFZwSzPNXrc7VL8Yx"><rect width="350" height="220"/></clipPath></defs><g clip-path="url(#_clipPath_XPVUMGl0opXVoWKgFZwSzPNXrc7VL8Yx)"><g><rect x="0" y="11" width="350" height="220" transform="matrix(1,0,0,1,0,0)" fill="rgb(255,255,255)"/><g><rect x="291.484" y="53.167" width="54.141" height="4.889" transform="matrix(1,0,0,1,0,0)" fill="none"/><g><rect x="291.484" y="53.167" width="54.141" height="4.889" transform="matrix(1,0,0,1,0,0)" fill="none"/><g><g clip-path="url(#_clipPath_bo2ZfOxejlBvHxX2zGfgUzVnQTgCPqSe)"><text transform="matrix(0.273,0,0,0.306,301.875,57.322)" style="font-family:'Arial';font-weight:700;font-size:16px;font-style:normal;font-variant-ligatures:none;fill:[Object GRGBColor];stroke:none;">Força</text></g><defs><clipPath id="_clipPath_bo2ZfOxejlBvHxX2zGfgUzVnQTgCPqSe"><rect x="0" y="0" width="46" height="17.875" transform="matrix(0.273,0,0,0.306,301.875,52.896)"/></clipPath></defs></g><mask id="_mask_2qvzlzXb6M8O8GRDvMplQ2yRe0BiJeqG" x="-200%" y="-200%" width="400%" height="400%"><rect x="-200%" y="-200%" width="400%" height="400%" style="fill:white;"/><line x1="291.484" y1="55.611" x2="300.234" y2="55.611" fill="black" stroke="none"/></mask><line x1="291.484" y1="55.611" x2="300.234" y2="55.611" mask="url(#_mask_2qvzlzXb6M8O8GRDvMplQ2yRe0BiJeqG)" vector-effect="non-scaling-stroke" stroke-width="1.145" stroke="rgb(51,102,204)" stroke-linejoin="miter" stroke-linecap="butt" stroke-miterlimit="4"/></g></g><g><rect x="62.891" y="53.167" width="224.219" height="135.972" transform="matrix(1,0,0,1,0,0)" fill="none"/><clipPath id="_clipPath_wjaCEKNjdoLDtp3QnKyDoxellPLjfxYv"><rect x="62.891" y="53.167" width="224.219" height="135.972" transform="matrix(1,0,0,1,0,0)" fill="rgb(255,255,255)"/></clipPath><g clip-path="url(#_clipPath_wjaCEKNjdoLDtp3QnKyDoxellPLjfxYv)"><g><g><rect x="62.891" y="53.167" width="0.273" height="135.972" transform="matrix(1,0,0,1,0,0)" fill="rgb(204,204,204)"/><rect x="105.273" y="53.167" width="0.273" height="135.972" transform="matrix(1,0,0,1,0,0)" fill="rgb(204,204,204)"/><rect x="147.656" y="53.167" width="0.273" height="135.972" transform="matrix(1,0,0,1,0,0)" fill="rgb(204,204,204)"/><rect x="189.766" y="53.167" width="0.273" height="135.972" transform="matrix(1,0,0,1,0,0)" fill="rgb(204,204,204)"/><rect x="232.148" y="53.167" width="0.273" height="135.972" transform="matrix(1,0,0,1,0,0)" fill="rgb(204,204,204)"/><rect x="274.531" y="53.167" width="0.273" height="135.972" transform="matrix(1,0,0,1,0,0)" fill="rgb(204,204,204)"/><rect x="83.945" y="53.167" width="0.273" height="135.972" transform="matrix(1,0,0,1,0,0)" fill="rgb(235,235,235)"/><rect x="126.328" y="53.167" width="0.273" height="135.972" transform="matrix(1,0,0,1,0,0)" fill="rgb(235,235,235)"/><rect x="168.711" y="53.167" width="0.273" height="135.972" transform="matrix(1,0,0,1,0,0)" fill="rgb(235,235,235)"/><rect x="211.094" y="53.167" width="0.273" height="135.972" transform="matrix(1,0,0,1,0,0)" fill="rgb(235,235,235)"/><rect x="253.477" y="53.167" width="0.273" height="135.972" transform="matrix(1,0,0,1,0,0)" fill="rgb(235,235,235)"/><rect x="295.859" y="53.167" width="0.273" height="135.972" transform="matrix(1,0,0,1,0,0)" fill="rgb(235,235,235)"/><rect x="62.891" y="188.833" width="224.219" height="0.306" transform="matrix(1,0,0,1,0,0)" fill="rgb(204,204,204)"/><rect x="62.891" y="175.389" width="224.219" height="0.306" transform="matrix(1,0,0,1,0,0)" fill="rgb(204,204,204)"/><rect x="62.891" y="161.639" width="224.219" height="0.306" transform="matrix(1,0,0,1,0,0)" fill="rgb(204,204,204)"/><rect x="62.891" y="148.194" width="224.219" height="0.306" transform="matrix(1,0,0,1,0,0)" fill="rgb(204,204,204)"/><rect x="62.891" y="134.444" width="224.219" height="0.306" transform="matrix(1,0,0,1,0,0)" fill="rgb(204,204,204)"/><rect x="62.891" y="121" width="224.219" height="0.306" transform="matrix(1,0,0,1,0,0)" fill="rgb(204,204,204)"/><rect x="62.891" y="107.556" width="224.219" height="0.306" transform="matrix(1,0,0,1,0,0)" fill="rgb(204,204,204)"/><rect x="62.891" y="93.806" width="224.219" height="0.306" transform="matrix(1,0,0,1,0,0)" fill="rgb(204,204,204)"/><rect x="62.891" y="80.361" width="224.219" height="0.306" transform="matrix(1,0,0,1,0,0)" fill="rgb(204,204,204)"/><rect x="62.891" y="66.611" width="224.219" height="0.306" transform="matrix(1,0,0,1,0,0)" fill="rgb(204,204,204)"/><rect x="62.891" y="53.167" width="224.219" height="0.306" transform="matrix(1,0,0,1,0,0)" fill="rgb(204,204,204)"/><rect x="62.891" y="182.111" width="224.219" height="0.306" transform="matrix(1,0,0,1,0,0)" fill="rgb(235,235,235)"/><rect x="62.891" y="168.361" width="224.219" height="0.306" transform="matrix(1,0,0,1,0,0)" fill="rgb(235,235,235)"/><rect x="62.891" y="154.917" width="224.219" height="0.306" transform="matrix(1,0,0,1,0,0)" fill="rgb(235,235,235)"/><rect x="62.891" y="141.472" width="224.219" height="0.306" transform="matrix(1,0,0,1,0,0)" fill="rgb(235,235,235)"/><rect x="62.891" y="127.722" width="224.219" height="0.306" transform="matrix(1,0,0,1,0,0)" fill="rgb(235,235,235)"/><rect x="62.891" y="114.278" width="224.219" height="0.306" transform="matrix(1,0,0,1,0,0)" fill="rgb(235,235,235)"/><rect x="62.891" y="100.528" width="224.219" height="0.306" transform="matrix(1,0,0,1,0,0)" fill="rgb(235,235,235)"/><rect x="62.891" y="87.083" width="224.219" height="0.306" transform="matrix(1,0,0,1,0,0)" fill="rgb(235,235,235)"/><rect x="62.891" y="73.639" width="224.219" height="0.306" transform="matrix(1,0,0,1,0,0)" fill="rgb(235,235,235)"/><rect x="62.891" y="59.889" width="224.219" height="0.306" transform="matrix(1,0,0,1,0,0)" fill="rgb(235,235,235)"/></g><g><rect x="62.891" y="53.167" width="0.273" height="135.972" transform="matrix(1,0,0,1,0,0)" fill="rgb(51,51,51)"/><rect x="62.891" y="188.833" width="224.219" height="0.306" transform="matrix(1,0,0,1,0,0)" fill="rgb(51,51,51)"/></g><g><mask id="_mask_stNaTw4ffll8SmYqgNuAlGn6Edakppcm" x="-200%" y="-200%" width="400%" height="400%"><rect x="-200%" y="-200%" width="400%" height="400%" style="fill:white;"/><path d=" M 63.239 188.986 L 63.027 187.602 L 63.239 186.788 L 63.239 185.323 L 63.451 183.899 L 63.451 183.125 L 63.662 182.271 L 63.662 181.172 L 63.874 180.276 L 63.874 179.381 L 64.086 176.98 L 64.086 175.392 L 64.297 175.881 L 64.297 174.253 L 64.509 170.793 L 64.509 170.142 L 64.721 169.816 L 64.721 166.967 L 64.932 166.52 L 64.932 164.2 L 65.144 161.88 L 65.144 160.985 L 65.356 158.665 L 65.356 156.385 L 65.567 154.717 L 65.567 152.56 L 65.779 150.443 L 65.779 148.327 L 65.991 146.902 L 65.991 145.274 L 66.202 143.646 L 66.202 141.896 L 66.414 140.065 L 66.414 138.03 L 66.626 136.442 L 66.626 134.855 L 66.837 132.902 L 66.837 130.419 L 67.049 128.994 L 67.049 127.611 L 67.261 125.738 L 67.261 123.988 L 67.472 122.523 L 67.472 120.692 L 67.684 119.715 L 67.684 117.802 L 67.896 116.622 L 67.896 115.36 L 68.107 113.488 L 68.107 112.552 L 68.319 110.272 L 68.319 108.563 L 68.531 107.423 L 68.531 105.917 L 68.742 104.656 L 68.742 103.313 L 68.954 101.97 L 68.954 100.586 L 69.166 98.836 L 69.166 97.574 L 69.377 96.027 L 69.377 94.847 L 69.589 94.928 L 69.589 95.865 L 69.801 102.051 L 69.801 111.249 L 70.012 119.104 L 70.012 124.965 L 70.224 129.035 L 70.224 131.884 L 70.436 134.407 L 70.436 136.076 L 70.647 137.338 L 70.647 138.396 L 70.859 139.454 L 70.859 140.797 L 71.071 137.541 L 71.071 128.709 L 71.282 125.535 L 71.282 126.267 L 71.494 125.413 L 71.494 126.023 L 71.706 125.657 L 71.706 125.087 L 71.917 125.169 L 71.917 124.68 L 72.129 124.639 L 72.129 124.599 L 72.341 123.866 L 72.341 124.11 L 72.552 123.215 L 72.552 123.052 L 72.764 122.523 L 72.764 121.994 L 72.976 122.035 L 72.976 121.628 L 73.187 121.18 L 73.187 120.692 L 73.399 119.755 L 73.399 119.43 L 73.611 118.697 L 73.611 118.412 L 73.822 118.25 L 73.822 117.313 L 74.034 117.395 L 74.034 117.354 L 74.246 116.092 L 74.246 115.238 L 74.457 114.261 L 74.457 113.61 L 74.669 113.488 L 74.669 112.714 L 74.881 112.063 L 74.881 111.168 L 75.092 110.598 L 75.092 110.028 L 75.304 109.255 L 75.304 109.214 L 75.516 108.482 L 75.516 107.912 L 75.727 107.505 L 75.727 106.365 L 75.939 105.877 L 75.939 105.633 L 76.151 104.737 L 76.151 104.615 L 76.362 103.964 L 76.362 103.638 L 76.574 103.028 L 76.574 101.929 L 76.786 101.766 L 76.786 101.033 L 76.997 100.464 L 76.997 100.138 L 77.209 99.568 L 77.209 99.039 L 77.421 97.859 L 77.421 95.458 L 77.632 96.027 L 77.632 101.685 L 77.844 107.912 L 77.844 113.121 L 78.056 118.697 L 78.056 122.93 L 78.267 125.942 L 78.267 128.425 L 78.479 126.471 L 78.479 119.959 L 78.691 114.953 L 78.691 115.36 L 78.902 115.034 L 78.902 114.994 L 79.114 115.685 L 79.114 115.156 L 79.326 115.645 L 79.326 115.93 L 79.537 115.848 L 79.537 116.255 L 79.749 115.441 L 79.749 116.011 L 79.961 115.401 L 79.961 114.79 L 80.172 115.116 L 80.172 114.464 L 80.384 114.383 L 80.384 114.424 L 80.596 114.546 L 80.596 114.505 L 80.807 114.22 L 80.807 114.098 L 81.019 113.895 L 81.019 113.773 L 81.231 113.406 L 81.231 113.61 L 81.443 114.261 L 81.443 113.976 L 81.654 112.999 L 81.654 112.429 L 81.866 111.778 L 81.866 111.331 L 82.078 110.761 L 82.078 110.354 L 82.289 109.703 L 82.289 108.929 L 82.501 108.319 L 82.501 107.627 L 82.713 107.016 L 82.713 107.301 L 82.924 106.243 L 82.924 105.429 L 83.136 105.103 L 83.136 104.371 L 83.348 104.045 L 83.348 103.394 L 83.559 103.272 L 83.559 102.417 L 83.771 103.068 L 83.771 104.005 L 83.983 103.598 L 83.983 104.452 L 84.194 104.574 L 84.194 104.534 L 84.406 105.592 L 84.406 105.063 L 84.618 105.348 L 84.618 105.917 L 84.829 105.022 L 84.829 106.121 L 85.041 108.726 L 85.041 114.139 L 85.253 119.471 L 85.253 123.256 L 85.464 126.471 L 85.464 129.564 L 85.676 131.314 L 85.676 133.96 L 85.888 135.588 L 85.888 137.379 L 86.099 139.861 L 86.099 142.466 L 86.311 145.193 L 86.311 146.373 L 86.523 146.088 L 86.523 145.071 L 86.734 143.321 L 86.734 141.815 L 86.946 139.739 L 86.946 137.379 L 87.158 135.588 L 87.158 133.716 L 87.369 133.105 L 87.369 132.535 L 87.581 132.128 L 87.581 131.925 L 87.793 131.192 L 87.793 130.948 L 88.004 130.541 L 88.004 130.053 L 88.216 129.849 L 88.216 129.279 L 88.428 128.791 L 88.428 128.058 L 88.639 127.855 L 88.639 127.855 L 88.851 127.57 L 88.851 127.611 L 89.063 126.552 L 89.063 125.372 L 89.274 124.924 L 89.274 124.07 L 89.486 123.5 L 89.486 123.174 L 89.698 122.889 L 89.698 122.075 L 89.909 121.302 L 89.909 121.261 L 90.121 120.936 L 90.121 120.732 L 90.333 120.529 L 90.333 120 L 90.544 119.918 L 90.544 119.471 L 90.756 118.941 L 90.756 118.657 L 90.968 118.209 L 90.968 118.209 L 91.179 118.209 L 91.179 117.883 L 91.391 117.843 L 91.391 117.476 L 91.603 117.11 L 91.603 117.029 L 91.814 116.825 L 91.814 116.784 L 92.026 116.703 L 92.026 116.499 L 92.238 116.581 L 92.238 116.581 L 92.449 116.174 L 92.449 116.092 L 92.661 115.645 L 92.661 115.238 L 92.873 115.441 L 92.873 115.197 L 93.084 114.912 L 93.084 114.139 L 93.296 112.999 L 93.296 111.738 L 93.508 104.778 L 93.508 106.324 L 93.719 108.766 L 93.719 107.668 L 93.931 110.435 L 93.931 111.941 L 94.143 107.912 L 94.143 100.749 L 94.354 99.975 L 94.354 100.545 L 94.566 98.917 L 94.566 96.231 L 94.778 97.167 L 94.778 96.109 L 94.989 94.888 L 94.989 93.26 L 95.201 93.219 L 95.201 93.097 L 95.413 92.649 L 95.413 92.69 L 95.624 96.434 L 95.624 98.673 L 95.836 96.963 L 95.836 98.266 L 96.048 98.551 L 96.048 101.44 L 96.259 102.132 L 96.259 101.97 L 96.471 103.516 L 96.471 104.371 L 96.683 105.877 L 96.683 106.324 L 96.894 106.813 L 96.894 107.83 L 97.106 105.836 L 97.106 106.731 L 97.318 105.795 L 97.318 104.981 L 97.529 106.731 L 97.529 106.08 L 97.741 107.383 L 97.741 108.522 L 97.953 108.156 L 97.953 108.685 L 98.164 108.441 L 98.164 109.662 L 98.376 111.086 L 98.376 111.208 L 98.588 112.592 L 98.588 112.877 L 98.799 112.552 L 98.799 113.61 L 99.011 113.162 L 99.011 112.959 L 99.223 114.464 L 99.223 114.668 L 99.434 115.401 L 99.434 115.034 L 99.646 114.912 L 99.646 115.685 L 99.858 115.726 L 99.858 115.97 L 100.069 115.645 L 100.069 116.459 L 100.281 117.476 L 100.281 116.581 L 100.493 117.395 L 100.493 116.825 L 100.704 116.906 L 100.704 119.104 L 100.916 121.343 L 100.916 125.169 L 101.128 127.651 L 101.128 129.361 L 101.339 132.332 L 101.339 133.471 L 101.551 135.751 L 101.551 135.344 L 101.763 132.006 L 101.763 128.14 L 101.974 124.68 L 101.974 124.232 L 102.186 123.174 L 102.186 122.279 L 102.398 121.139 L 102.398 120.447 L 102.609 120.081 L 102.609 119.796 L 102.821 119.104 L 102.821 118.494 L 103.033 117.802 L 103.033 117.313 L 103.244 116.744 L 103.244 116.215 L 103.456 115.97 L 103.456 115.319 L 103.668 115.278 L 103.668 114.627 L 103.879 112.348 L 103.879 112.999 L 104.091 111.941 L 104.091 111.249 L 104.303 111.29 L 104.303 110.15 L 104.514 109.296 L 104.514 108.644 L 104.726 109.133 L 104.726 109.255 L 104.938 107.952 L 104.938 105.47 L 105.149 104.941 L 105.149 104.249 L 105.361 105.266 L 105.361 103.72 L 105.573 102.295 L 105.573 102.458 L 105.784 102.417 L 105.784 101.807 L 105.996 100.952 L 105.996 100.301 L 106.208 99.487 L 106.208 98.429 L 106.419 98.551 L 106.419 97.126 L 106.631 97.167 L 106.631 96.76 L 106.843 96.353 L 106.843 96.801 L 107.054 94.684 L 107.054 94.928 L 107.266 93.87 L 107.266 92.69 L 107.478 92.649 L 107.478 90.126 L 107.689 89.353 L 107.689 89.393 L 107.901 89.963 L 107.901 92.975 L 108.113 91.591 L 108.113 88.823 L 108.324 93.545 L 108.324 97.208 L 108.536 98.917 L 108.536 100.993 L 108.748 99.609 L 108.748 101.766 L 108.959 103.72 L 108.959 104.249 L 109.171 104.656 L 109.171 103.964 L 109.383 106.65 L 109.383 104.819 L 109.594 104.574 L 109.594 105.836 L 109.806 104.9 L 109.806 107.098 L 110.018 104.452 L 110.018 104.615 L 110.229 105.47 L 110.229 104.819 L 110.441 106.935 L 110.441 104.289 L 110.653 103.557 L 110.653 104.696 L 110.864 102.132 L 110.864 104.412 L 111.076 104.005 L 111.076 103.109 L 111.288 105.755 L 111.288 103.231 L 111.499 101.97 L 111.499 101.807 L 111.711 100.097 L 111.711 102.417 L 111.923 101.481 L 111.923 100.708 L 112.134 101.685 L 112.134 99.161 L 112.346 99.812 L 112.346 99.975 L 112.558 98.632 L 112.558 98.469 L 112.769 97.126 L 112.769 97.696 L 112.981 98.347 L 112.981 96.475 L 113.193 96.638 L 113.193 95.865 L 113.404 94.033 L 113.404 94.074 L 113.616 93.26 L 113.616 93.056 L 113.828 91.713 L 113.828 90.655 L 114.039 90.329 L 114.039 89.556 L 114.251 89.108 L 114.251 89.027 L 114.463 93.178 L 114.463 98.673 L 114.674 103.964 L 114.674 109.743 L 114.886 109.173 L 114.886 114.098 L 115.098 119.023 L 115.098 119.511 L 115.309 122.32 L 115.309 123.744 L 115.521 123.215 L 115.521 123.703 L 115.733 123.907 L 115.733 122.808 L 115.944 120.569 L 115.944 120.04 L 116.156 119.43 L 116.156 119.145 L 116.368 118.941 L 116.368 118.412 L 116.579 118.779 L 116.579 117.802 L 116.791 118.005 L 116.791 118.779 L 117.003 118.534 L 117.003 117.598 L 117.214 117.883 L 117.214 117.11 L 117.426 115.93 L 117.426 116.377 L 117.638 114.912 L 117.638 114.831 L 117.849 116.011 L 117.849 115.97 L 118.061 115.97 L 118.061 114.424 L 118.273 115.116 L 118.273 115.401 L 118.485 114.953 L 118.485 115.278 L 118.696 113.773 L 118.696 113.04 L 118.908 111.371 L 118.908 110.354 L 119.12 111.208 L 119.12 110.639 L 119.331 111.046 L 119.331 110.801 L 119.543 108.848 L 119.543 108.807 L 119.755 108.441 L 119.755 108.685 L 119.966 107.83 L 119.966 105.795 L 120.178 106.202 L 120.178 106.121 L 120.39 104.167 L 120.39 103.435 L 120.601 103.394 L 120.601 103.353 L 120.813 103.801 L 120.813 102.295 L 121.025 101.929 L 121.025 100.464 L 121.236 100.504 L 121.236 100.911 L 121.448 100.423 L 121.448 100.382 L 121.66 99.202 L 121.66 98.876 L 121.871 99.283 L 121.871 97.493 L 122.083 96.027 L 122.083 96.353 L 122.295 99.161 L 122.295 103.842 L 122.506 108.644 L 122.506 114.505 L 122.718 117.191 L 122.718 120.04 L 122.93 122.564 L 122.93 124.11 L 123.141 126.145 L 123.141 125.25 L 123.353 123.256 L 123.353 122.523 L 123.565 121.546 L 123.565 121.465 L 123.776 121.18 L 123.776 120.366 L 123.988 120.529 L 123.988 120.569 L 124.2 120.895 L 124.2 120.569 L 124.411 120.61 L 124.411 119.796 L 124.623 118.209 L 124.623 116.988 L 124.835 116.337 L 124.835 115.93 L 125.046 115.889 L 125.046 115.36 L 125.258 114.79 L 125.258 114.18 L 125.47 115.441 L 125.47 116.215 L 125.681 115.767 L 125.681 115.523 L 125.893 114.505 L 125.893 114.912 L 126.105 115.726 L 126.105 114.139 L 126.316 112.226 L 126.316 110.557 L 126.528 111.29 L 126.528 111.086 L 126.74 111.005 L 126.74 112.47 L 126.951 111.697 L 126.951 110.557 L 127.163 110.272 L 127.163 110.069 L 127.375 109.54 L 127.375 108.034 L 127.586 107.749 L 127.586 107.83 L 127.798 107.179 L 127.798 107.301 L 128.01 107.098 L 128.01 105.51 L 128.221 105.103 L 128.221 105.266 L 128.433 104.615 L 128.433 102.702 L 128.645 102.295 L 128.645 103.516 L 128.856 103.313 L 128.856 102.417 L 129.068 100.504 L 129.068 99.609 L 129.28 100.586 L 129.28 100.342 L 129.491 99.812 L 129.491 100.342 L 129.703 101.563 L 129.703 102.824 L 129.915 102.906 L 129.915 106.243 L 130.126 108.604 L 130.126 112.104 L 130.338 115.482 L 130.338 115.482 L 130.55 116.784 L 130.55 115.808 L 130.761 114.18 L 130.761 116.418 L 130.973 116.906 L 130.973 116.662 L 131.185 114.953 L 131.185 114.057 L 131.396 115.523 L 131.396 115.319 L 131.608 114.424 L 131.608 114.668 L 131.82 114.871 L 131.82 116.092 L 132.031 116.622 L 132.031 115.889 L 132.243 114.749 L 132.243 114.505 L 132.455 115.278 L 132.455 114.18 L 132.666 113.976 L 132.666 113.854 L 132.878 113.162 L 132.878 112.714 L 133.09 111.249 L 133.09 111.575 L 133.301 112.714 L 133.301 111.371 L 133.513 112.226 L 133.513 111.412 L 133.725 108.441 L 133.725 108.604 L 133.936 107.993 L 133.936 107.586 L 134.148 108.929 L 134.148 107.016 L 134.36 106.202 L 134.36 106.162 L 134.571 105.592 L 134.571 105.144 L 134.783 103.109 L 134.783 102.621 L 134.995 102.824 L 134.995 101.725 L 135.206 101.359 L 135.206 101.603 L 135.418 100.83 L 135.418 97.615 L 135.63 98.103 L 135.63 97.248 L 135.841 95.498 L 135.841 96.109 L 136.053 94.481 L 136.053 94.114 L 136.265 94.684 L 136.265 92.364 L 136.476 92.69 L 136.476 93.463 L 136.688 92.771 L 136.688 92.731 L 136.9 90.167 L 136.9 91.469 L 137.111 94.318 L 137.111 97.655 L 137.323 103.191 L 137.323 107.545 L 137.535 110.557 L 137.535 113.976 L 137.746 116.011 L 137.746 118.453 L 137.958 115.848 L 137.958 114.546 L 138.17 116.866 L 138.17 116.54 L 138.381 115.645 L 138.381 116.133 L 138.593 115.889 L 138.593 115.726 L 138.805 115.97 L 138.805 115.685 L 139.016 116.092 L 139.016 116.215 L 139.228 116.418 L 139.228 116.092 L 139.44 115.808 L 139.44 116.377 L 139.651 115.93 L 139.651 114.505 L 139.863 114.994 L 139.863 114.424 L 140.075 111.819 L 140.075 109.987 L 140.286 109.336 L 140.286 109.662 L 140.498 109.051 L 140.498 110.394 L 140.71 111.208 L 140.71 112.145 L 140.921 111.86 L 140.921 111.778 L 141.133 111.29 L 141.133 111.086 L 141.345 110.72 L 141.345 109.865 L 141.556 109.173 L 141.556 107.261 L 141.768 105.917 L 141.768 105.917 L 141.98 104.289 L 141.98 104.289 L 142.191 104.819 L 142.191 104.167 L 142.403 103.598 L 142.403 103.313 L 142.615 102.539 L 142.615 102.051 L 142.826 101.278 L 142.826 100.993 L 143.038 100.179 L 143.038 99.812 L 143.25 98.632 L 143.25 98.225 L 143.461 97.208 L 143.461 96.19 L 143.673 96.719 L 143.673 95.742 L 143.885 95.376 L 143.885 94.969 L 144.096 93.87 L 144.096 93.707 L 144.308 94.196 L 144.308 94.847 L 144.52 98.795 L 144.52 102.743 L 144.731 107.464 L 144.731 110.557 L 144.943 113.65 L 144.943 116.988 L 145.155 119.674 L 145.155 120.244 L 145.366 122.686 L 145.366 123.5 L 145.578 122.32 L 145.578 121.424 L 145.79 121.017 L 145.79 121.506 L 146.001 121.668 L 146.001 121.506 L 146.213 121.587 L 146.213 121.546 L 146.425 121.261 L 146.425 119.348 L 146.636 120 L 146.636 120.447 L 146.848 120.04 L 146.848 121.302 L 147.06 120.325 L 147.06 120.244 L 147.271 119.633 L 147.271 119.389 L 147.483 120.081 L 147.483 118.209 L 147.695 118.25 L 147.695 117.843 L 147.906 116.54 L 147.906 116.337 L 148.118 114.627 L 148.118 114.342 L 148.33 114.383 L 148.33 112.511 L 148.541 110.801 L 148.541 109.255 L 148.753 108.929 L 148.753 109.458 L 148.965 108.685 L 148.965 108.156 L 149.176 108.115 L 149.176 107.423 L 149.388 107.464 L 149.388 105.592 L 149.6 103.272 L 149.6 104.859 L 149.811 104.9 L 149.811 105.551 L 150.023 104.289 L 150.023 102.377 L 150.235 102.051 L 150.235 101.4 L 150.446 100.749 L 150.446 99.772 L 150.658 98.876 L 150.658 99.487 L 150.87 99.365 L 150.87 97.248 L 151.081 89.922 L 151.081 80.276 L 151.293 77.631 L 151.293 76.125 L 151.505 74.009 L 151.505 72.177 L 151.716 72.462 L 151.716 72.014 L 151.928 70.305 L 151.928 69.369 L 152.14 72.747 L 152.14 76.084 L 152.351 79.91 L 152.351 82.067 L 152.563 82.759 L 152.563 84.265 L 152.775 85.608 L 152.775 86.259 L 152.986 88.864 L 152.986 87.765 L 153.198 88.661 L 153.198 90.981 L 153.41 91.713 L 153.41 93.3 L 153.621 94.277 L 153.621 94.114 L 153.833 93.016 L 153.833 93.056 L 154.045 92.975 L 154.045 94.237 L 154.256 93.87 L 154.256 94.806 L 154.468 96.394 L 154.468 94.277 L 154.68 93.3 L 154.68 95.335 L 154.891 95.987 L 154.891 95.335 L 155.103 94.644 L 155.103 94.928 L 155.315 96.882 L 155.315 93.952 L 155.526 93.626 L 155.526 92.934 L 155.738 92.446 L 155.738 93.097 L 155.95 93.911 L 155.95 94.521 L 156.162 93.911 L 156.162 91.388 L 156.373 92.771 L 156.373 93.016 L 156.585 93.341 L 156.585 90.411 L 156.797 88.62 L 156.797 91.062 L 157.008 91.225 L 157.008 89.963 L 157.22 89.312 L 157.22 88.823 L 157.432 90.126 L 157.432 92.486 L 157.643 95.498 L 157.643 98.673 L 157.855 101.196 L 157.855 102.702 L 158.067 105.348 L 158.067 109.173 L 158.278 109.825 L 158.278 112.348 L 158.49 112.429 L 158.49 109.825 L 158.702 111.778 L 158.702 112.552 L 158.913 111.86 L 158.913 113.447 L 159.125 114.18 L 159.125 113.895 L 159.337 113.406 L 159.337 113.243 L 159.548 112.552 L 159.548 113.243 L 159.76 114.709 L 159.76 113.813 L 159.972 113.773 L 159.972 112.104 L 160.183 112.063 L 160.183 114.261 L 160.395 115.116 L 160.395 114.22 L 160.607 112.877 L 160.607 112.877 L 160.818 112.796 L 160.818 112.592 L 161.03 112.511 L 161.03 111.819 L 161.242 112.877 L 161.242 113.04 L 161.453 112.511 L 161.453 112.348 L 161.665 111.778 L 161.665 111.493 L 161.877 110.801 L 161.877 110.11 L 162.088 109.458 L 162.088 108.4 L 162.3 107.301 L 162.3 105.022 L 162.512 105.633 L 162.512 104.534 L 162.723 104.127 L 162.723 103.313 L 162.935 101.4 L 162.935 102.661 L 163.147 103.028 L 163.147 102.865 L 163.358 103.598 L 163.358 102.173 L 163.57 97.533 L 163.57 95.376 L 163.782 95.091 L 163.782 94.644 L 163.993 96.434 L 163.993 96.923 L 164.205 96.841 L 164.205 94.644 L 164.417 93.626 L 164.417 93.83 L 164.628 93.585 L 164.628 93.056 L 164.84 91.225 L 164.84 93.26 L 165.052 97.411 L 165.052 100.749 L 165.263 105.144 L 165.263 106.691 L 165.475 110.72 L 165.475 113.325 L 165.687 111.493 L 165.687 112.145 L 165.898 111.127 L 165.898 111.778 L 166.11 111.046 L 166.11 111.982 L 166.322 113.243 L 166.322 112.145 L 166.533 114.79 L 166.533 115.563 L 166.745 116.337 L 166.745 116.947 L 166.957 115.197 L 166.957 113.895 L 167.168 114.098 L 167.168 115.604 L 167.38 114.912 L 167.38 113.854 L 167.592 115.238 L 167.592 114.139 L 167.803 114.464 L 167.803 114.749 L 168.015 113.04 L 168.015 113.081 L 168.227 113.773 L 168.227 113.488 L 168.438 112.836 L 168.438 112.796 L 168.65 112.429 L 168.65 110.435 L 168.862 105.266 L 168.862 106.08 L 169.073 107.505 L 169.073 106.935 L 169.285 108.359 L 169.285 107.057 L 169.497 107.057 L 169.497 108.034 L 169.708 105.958 L 169.708 106.731 L 169.92 105.063 L 169.92 104.737 L 170.132 105.144 L 170.132 102.865 L 170.343 102.824 L 170.343 102.295 L 170.555 101.278 L 170.555 99.243 L 170.767 99.121 L 170.767 100.586 L 170.978 100.26 L 170.978 99.446 L 171.19 98.591 L 171.19 98.917 L 171.402 97.696 L 171.402 96.841 L 171.613 97.289 L 171.613 95.62 L 171.825 95.661 L 171.825 93.952 L 172.037 91.835 L 172.037 94.196 L 172.248 96.841 L 172.248 101.033 L 172.46 103.028 L 172.46 104.778 L 172.672 104.737 L 172.672 103.76 L 172.883 106.528 L 172.883 108.197 L 173.095 109.133 L 173.095 109.784 L 173.307 109.784 L 173.307 112.185 L 173.518 112.063 L 173.518 111.412 L 173.73 112.307 L 173.73 112.633 L 173.942 113.813 L 173.942 115.36 L 174.153 113.895 L 174.153 112.999 L 174.365 114.017 L 174.365 113.121 L 174.577 113.162 L 174.577 110.557 L 174.788 102.865 L 174.788 102.946 L 175 104.696 L 175 106.731 L 175.212 108.929 L 175.212 109.58 L 175.423 110.801 L 175.423 110.232 L 175.635 109.703 L 175.635 110.72 L 175.847 110.435 L 175.847 111.371 L 176.058 111.534 L 176.058 109.499 L 176.27 109.255 L 176.27 108.563 L 176.482 107.383 L 176.482 106.162 L 176.693 105.714 L 176.693 105.877 L 176.905 105.51 L 176.905 104.493 L 177.117 102.865 L 177.117 102.132 L 177.328 100.667 L 177.328 99.853 L 177.54 99.202 L 177.54 99.772 L 177.752 100.504 L 177.752 99.202 L 177.963 98.184 L 177.963 96.231 L 178.175 88.416 L 178.175 79.992 L 178.387 79.544 L 178.387 78.526 L 178.598 75.27 L 178.598 73.113 L 178.81 70.631 L 178.81 72.421 L 179.022 73.846 L 179.022 75.392 L 179.233 77.183 L 179.233 79.055 L 179.445 84.428 L 179.445 89.068 L 179.657 91.306 L 179.657 95.702 L 179.868 95.987 L 179.868 98.429 L 180.08 100.952 L 180.08 100.871 L 180.292 102.214 L 180.292 104.045 L 180.503 104.534 L 180.503 104.412 L 180.715 105.551 L 180.715 105.551 L 180.927 104.819 L 180.927 103.272 L 181.138 101.766 L 181.138 102.865 L 181.35 104.127 L 181.35 103.516 L 181.562 105.063 L 181.562 103.964 L 181.773 104.208 L 181.773 103.231 L 181.985 102.173 L 181.985 103.15 L 182.197 99.487 L 182.197 92.975 L 182.408 93.83 L 182.408 95.335 L 182.62 97.574 L 182.62 99.161 L 182.832 97.981 L 182.832 98.103 L 183.043 98.307 L 183.043 98.632 L 183.255 96.923 L 183.255 95.661 L 183.467 96.516 L 183.467 96.027 L 183.678 96.027 L 183.678 95.539 L 183.89 93.423 L 183.89 93.87 L 184.102 92.771 L 184.102 87.847 L 184.313 88.335 L 184.313 89.678 L 184.525 87.073 L 184.525 72.259 L 184.737 65.909 L 184.737 67.456 L 184.948 69.979 L 184.948 71.689 L 185.16 73.887 L 185.16 76.288 L 185.372 78.364 L 185.372 77.834 L 185.583 76.329 L 185.583 75.148 L 185.795 74.619 L 185.795 77.346 L 186.007 78.079 L 186.007 73.357 L 186.218 74.171 L 186.218 76.044 L 186.43 75.962 L 186.43 79.462 L 186.642 79.422 L 186.642 82.108 L 186.853 87.643 L 186.853 91.51 L 187.065 94.969 L 187.065 97.248 L 187.277 98.876 L 187.277 100.952 L 187.488 101.563 L 187.488 99.202 L 187.7 100.301 L 187.7 101.196 L 187.912 101.847 L 187.912 103.191 L 188.123 104.574 L 188.123 103.231 L 188.335 103.76 L 188.335 103.109 L 188.547 103.475 L 188.547 105.022 L 188.758 102.784 L 188.758 102.661 L 188.97 100.993 L 188.97 99.812 L 189.182 100.097 L 189.182 100.789 L 189.393 102.743 L 189.393 103.638 L 189.605 103.679 L 189.605 103.679 L 189.817 102.499 L 189.817 102.173 L 190.028 102.784 L 190.028 101.888 L 190.24 103.475 L 190.24 102.295 L 190.452 100.342 L 190.452 99.283 L 190.663 98.836 L 190.663 99.894 L 190.875 100.708 L 190.875 101.318 L 191.087 102.377 L 191.087 102.336 L 191.298 106.121 L 191.298 108.644 L 191.51 109.825 L 191.51 112.429 L 191.722 111.86 L 191.722 114.017 L 191.933 115.848 L 191.933 117.802 L 192.145 119.959 L 192.145 120.447 L 192.357 122.523 L 192.357 124.965 L 192.568 126.634 L 192.568 128.343 L 192.78 128.099 L 192.78 132.21 L 192.992 133.431 L 192.992 133.146 L 193.203 136.32 L 193.203 138.844 L 193.415 140.757 L 193.415 141.978 L 193.627 143.158 L 193.627 146.414 L 193.838 147.065 L 193.838 147.309 L 194.05 150.036 L 194.05 150.972 L 194.262 153.455 L 194.262 156.263 L 194.474 156.833 L 194.474 158.38 L 194.685 160.089 L 194.685 162.938 L 194.897 161.839 L 194.897 161.554 L 195.109 163.915 L 195.109 163.793 L 195.32 164.607 L 195.32 165.746 L 195.532 166.845 L 195.532 167.7 L 195.744 168.026 L 195.744 169.857 L 195.955 169.287 L 195.955 170.427 L 196.167 170.793 L 196.167 169.694 L 196.379 171.933 L 196.379 171.729 L 196.59 172.258 L 196.59 172.503 L 196.802 171.729 L 196.802 173.683 L 197.014 173.195 L 197.014 173.846 L 197.225 175.433 L 197.225 175.352 L 197.437 175.718 L 197.437 175.107 L 197.649 175.596 L 197.649 177.061 L 197.86 178.282 L 197.86 179.096 L 198.072 178.323 L 198.072 178.119 L 198.284 177.997 L 198.284 178.689 L 198.495 178.73 L 198.495 179.259 L 198.707 180.602 L 198.707 180.683 L 198.919 181.172 L 198.919 181.212 L 199.13 181.497 L 199.13 182.352 L 199.342 182.718 L 199.342 183.451 L 199.554 184.468 L 199.554 184.428 L 199.765 184.346 L 199.765 184.916 L 199.977 185.689 L 199.977 186.015 L 200.189 186.219 L 200.189 184.468 L 200.4 185.893 L 200.4 186.544 L 200.612 184.875 L 200.612 185.282 L 200.824 184.713 L 200.824 185.201 L 201.035 185.689 L 201.035 186.015 L 201.247 186.788 L 201.247 186.544 L 201.459 186.91 L 201.459 187.033 L 201.67 186.91 L 201.67 187.399 L 201.882 187.195 L 286.973 187.643" fill="black" stroke="none"/></mask><path d=" M 63.239 188.986 L 63.027 187.602 L 63.239 186.788 L 63.239 185.323 L 63.451 183.899 L 63.451 183.125 L 63.662 182.271 L 63.662 181.172 L 63.874 180.276 L 63.874 179.381 L 64.086 176.98 L 64.086 175.392 L 64.297 175.881 L 64.297 174.253 L 64.509 170.793 L 64.509 170.142 L 64.721 169.816 L 64.721 166.967 L 64.932 166.52 L 64.932 164.2 L 65.144 161.88 L 65.144 160.985 L 65.356 158.665 L 65.356 156.385 L 65.567 154.717 L 65.567 152.56 L 65.779 150.443 L 65.779 148.327 L 65.991 146.902 L 65.991 145.274 L 66.202 143.646 L 66.202 141.896 L 66.414 140.065 L 66.414 138.03 L 66.626 136.442 L 66.626 134.855 L 66.837 132.902 L 66.837 130.419 L 67.049 128.994 L 67.049 127.611 L 67.261 125.738 L 67.261 123.988 L 67.472 122.523 L 67.472 120.692 L 67.684 119.715 L 67.684 117.802 L 67.896 116.622 L 67.896 115.36 L 68.107 113.488 L 68.107 112.552 L 68.319 110.272 L 68.319 108.563 L 68.531 107.423 L 68.531 105.917 L 68.742 104.656 L 68.742 103.313 L 68.954 101.97 L 68.954 100.586 L 69.166 98.836 L 69.166 97.574 L 69.377 96.027 L 69.377 94.847 L 69.589 94.928 L 69.589 95.865 L 69.801 102.051 L 69.801 111.249 L 70.012 119.104 L 70.012 124.965 L 70.224 129.035 L 70.224 131.884 L 70.436 134.407 L 70.436 136.076 L 70.647 137.338 L 70.647 138.396 L 70.859 139.454 L 70.859 140.797 L 71.071 137.541 L 71.071 128.709 L 71.282 125.535 L 71.282 126.267 L 71.494 125.413 L 71.494 126.023 L 71.706 125.657 L 71.706 125.087 L 71.917 125.169 L 71.917 124.68 L 72.129 124.639 L 72.129 124.599 L 72.341 123.866 L 72.341 124.11 L 72.552 123.215 L 72.552 123.052 L 72.764 122.523 L 72.764 121.994 L 72.976 122.035 L 72.976 121.628 L 73.187 121.18 L 73.187 120.692 L 73.399 119.755 L 73.399 119.43 L 73.611 118.697 L 73.611 118.412 L 73.822 118.25 L 73.822 117.313 L 74.034 117.395 L 74.034 117.354 L 74.246 116.092 L 74.246 115.238 L 74.457 114.261 L 74.457 113.61 L 74.669 113.488 L 74.669 112.714 L 74.881 112.063 L 74.881 111.168 L 75.092 110.598 L 75.092 110.028 L 75.304 109.255 L 75.304 109.214 L 75.516 108.482 L 75.516 107.912 L 75.727 107.505 L 75.727 106.365 L 75.939 105.877 L 75.939 105.633 L 76.151 104.737 L 76.151 104.615 L 76.362 103.964 L 76.362 103.638 L 76.574 103.028 L 76.574 101.929 L 76.786 101.766 L 76.786 101.033 L 76.997 100.464 L 76.997 100.138 L 77.209 99.568 L 77.209 99.039 L 77.421 97.859 L 77.421 95.458 L 77.632 96.027 L 77.632 101.685 L 77.844 107.912 L 77.844 113.121 L 78.056 118.697 L 78.056 122.93 L 78.267 125.942 L 78.267 128.425 L 78.479 126.471 L 78.479 119.959 L 78.691 114.953 L 78.691 115.36 L 78.902 115.034 L 78.902 114.994 L 79.114 115.685 L 79.114 115.156 L 79.326 115.645 L 79.326 115.93 L 79.537 115.848 L 79.537 116.255 L 79.749 115.441 L 79.749 116.011 L 79.961 115.401 L 79.961 114.79 L 80.172 115.116 L 80.172 114.464 L 80.384 114.383 L 80.384 114.424 L 80.596 114.546 L 80.596 114.505 L 80.807 114.22 L 80.807 114.098 L 81.019 113.895 L 81.019 113.773 L 81.231 113.406 L 81.231 113.61 L 81.443 114.261 L 81.443 113.976 L 81.654 112.999 L 81.654 112.429 L 81.866 111.778 L 81.866 111.331 L 82.078 110.761 L 82.078 110.354 L 82.289 109.703 L 82.289 108.929 L 82.501 108.319 L 82.501 107.627 L 82.713 107.016 L 82.713 107.301 L 82.924 106.243 L 82.924 105.429 L 83.136 105.103 L 83.136 104.371 L 83.348 104.045 L 83.348 103.394 L 83.559 103.272 L 83.559 102.417 L 83.771 103.068 L 83.771 104.005 L 83.983 103.598 L 83.983 104.452 L 84.194 104.574 L 84.194 104.534 L 84.406 105.592 L 84.406 105.063 L 84.618 105.348 L 84.618 105.917 L 84.829 105.022 L 84.829 106.121 L 85.041 108.726 L 85.041 114.139 L 85.253 119.471 L 85.253 123.256 L 85.464 126.471 L 85.464 129.564 L 85.676 131.314 L 85.676 133.96 L 85.888 135.588 L 85.888 137.379 L 86.099 139.861 L 86.099 142.466 L 86.311 145.193 L 86.311 146.373 L 86.523 146.088 L 86.523 145.071 L 86.734 143.321 L 86.734 141.815 L 86.946 139.739 L 86.946 137.379 L 87.158 135.588 L 87.158 133.716 L 87.369 133.105 L 87.369 132.535 L 87.581 132.128 L 87.581 131.925 L 87.793 131.192 L 87.793 130.948 L 88.004 130.541 L 88.004 130.053 L 88.216 129.849 L 88.216 129.279 L 88.428 128.791 L 88.428 128.058 L 88.639 127.855 L 88.639 127.855 L 88.851 127.57 L 88.851 127.611 L 89.063 126.552 L 89.063 125.372 L 89.274 124.924 L 89.274 124.07 L 89.486 123.5 L 89.486 123.174 L 89.698 122.889 L 89.698 122.075 L 89.909 121.302 L 89.909 121.261 L 90.121 120.936 L 90.121 120.732 L 90.333 120.529 L 90.333 120 L 90.544 119.918 L 90.544 119.471 L 90.756 118.941 L 90.756 118.657 L 90.968 118.209 L 90.968 118.209 L 91.179 118.209 L 91.179 117.883 L 91.391 117.843 L 91.391 117.476 L 91.603 117.11 L 91.603 117.029 L 91.814 116.825 L 91.814 116.784 L 92.026 116.703 L 92.026 116.499 L 92.238 116.581 L 92.238 116.581 L 92.449 116.174 L 92.449 116.092 L 92.661 115.645 L 92.661 115.238 L 92.873 115.441 L 92.873 115.197 L 93.084 114.912 L 93.084 114.139 L 93.296 112.999 L 93.296 111.738 L 93.508 104.778 L 93.508 106.324 L 93.719 108.766 L 93.719 107.668 L 93.931 110.435 L 93.931 111.941 L 94.143 107.912 L 94.143 100.749 L 94.354 99.975 L 94.354 100.545 L 94.566 98.917 L 94.566 96.231 L 94.778 97.167 L 94.778 96.109 L 94.989 94.888 L 94.989 93.26 L 95.201 93.219 L 95.201 93.097 L 95.413 92.649 L 95.413 92.69 L 95.624 96.434 L 95.624 98.673 L 95.836 96.963 L 95.836 98.266 L 96.048 98.551 L 96.048 101.44 L 96.259 102.132 L 96.259 101.97 L 96.471 103.516 L 96.471 104.371 L 96.683 105.877 L 96.683 106.324 L 96.894 106.813 L 96.894 107.83 L 97.106 105.836 L 97.106 106.731 L 97.318 105.795 L 97.318 104.981 L 97.529 106.731 L 97.529 106.08 L 97.741 107.383 L 97.741 108.522 L 97.953 108.156 L 97.953 108.685 L 98.164 108.441 L 98.164 109.662 L 98.376 111.086 L 98.376 111.208 L 98.588 112.592 L 98.588 112.877 L 98.799 112.552 L 98.799 113.61 L 99.011 113.162 L 99.011 112.959 L 99.223 114.464 L 99.223 114.668 L 99.434 115.401 L 99.434 115.034 L 99.646 114.912 L 99.646 115.685 L 99.858 115.726 L 99.858 115.97 L 100.069 115.645 L 100.069 116.459 L 100.281 117.476 L 100.281 116.581 L 100.493 117.395 L 100.493 116.825 L 100.704 116.906 L 100.704 119.104 L 100.916 121.343 L 100.916 125.169 L 101.128 127.651 L 101.128 129.361 L 101.339 132.332 L 101.339 133.471 L 101.551 135.751 L 101.551 135.344 L 101.763 132.006 L 101.763 128.14 L 101.974 124.68 L 101.974 124.232 L 102.186 123.174 L 102.186 122.279 L 102.398 121.139 L 102.398 120.447 L 102.609 120.081 L 102.609 119.796 L 102.821 119.104 L 102.821 118.494 L 103.033 117.802 L 103.033 117.313 L 103.244 116.744 L 103.244 116.215 L 103.456 115.97 L 103.456 115.319 L 103.668 115.278 L 103.668 114.627 L 103.879 112.348 L 103.879 112.999 L 104.091 111.941 L 104.091 111.249 L 104.303 111.29 L 104.303 110.15 L 104.514 109.296 L 104.514 108.644 L 104.726 109.133 L 104.726 109.255 L 104.938 107.952 L 104.938 105.47 L 105.149 104.941 L 105.149 104.249 L 105.361 105.266 L 105.361 103.72 L 105.573 102.295 L 105.573 102.458 L 105.784 102.417 L 105.784 101.807 L 105.996 100.952 L 105.996 100.301 L 106.208 99.487 L 106.208 98.429 L 106.419 98.551 L 106.419 97.126 L 106.631 97.167 L 106.631 96.76 L 106.843 96.353 L 106.843 96.801 L 107.054 94.684 L 107.054 94.928 L 107.266 93.87 L 107.266 92.69 L 107.478 92.649 L 107.478 90.126 L 107.689 89.353 L 107.689 89.393 L 107.901 89.963 L 107.901 92.975 L 108.113 91.591 L 108.113 88.823 L 108.324 93.545 L 108.324 97.208 L 108.536 98.917 L 108.536 100.993 L 108.748 99.609 L 108.748 101.766 L 108.959 103.72 L 108.959 104.249 L 109.171 104.656 L 109.171 103.964 L 109.383 106.65 L 109.383 104.819 L 109.594 104.574 L 109.594 105.836 L 109.806 104.9 L 109.806 107.098 L 110.018 104.452 L 110.018 104.615 L 110.229 105.47 L 110.229 104.819 L 110.441 106.935 L 110.441 104.289 L 110.653 103.557 L 110.653 104.696 L 110.864 102.132 L 110.864 104.412 L 111.076 104.005 L 111.076 103.109 L 111.288 105.755 L 111.288 103.231 L 111.499 101.97 L 111.499 101.807 L 111.711 100.097 L 111.711 102.417 L 111.923 101.481 L 111.923 100.708 L 112.134 101.685 L 112.134 99.161 L 112.346 99.812 L 112.346 99.975 L 112.558 98.632 L 112.558 98.469 L 112.769 97.126 L 112.769 97.696 L 112.981 98.347 L 112.981 96.475 L 113.193 96.638 L 113.193 95.865 L 113.404 94.033 L 113.404 94.074 L 113.616 93.26 L 113.616 93.056 L 113.828 91.713 L 113.828 90.655 L 114.039 90.329 L 114.039 89.556 L 114.251 89.108 L 114.251 89.027 L 114.463 93.178 L 114.463 98.673 L 114.674 103.964 L 114.674 109.743 L 114.886 109.173 L 114.886 114.098 L 115.098 119.023 L 115.098 119.511 L 115.309 122.32 L 115.309 123.744 L 115.521 123.215 L 115.521 123.703 L 115.733 123.907 L 115.733 122.808 L 115.944 120.569 L 115.944 120.04 L 116.156 119.43 L 116.156 119.145 L 116.368 118.941 L 116.368 118.412 L 116.579 118.779 L 116.579 117.802 L 116.791 118.005 L 116.791 118.779 L 117.003 118.534 L 117.003 117.598 L 117.214 117.883 L 117.214 117.11 L 117.426 115.93 L 117.426 116.377 L 117.638 114.912 L 117.638 114.831 L 117.849 116.011 L 117.849 115.97 L 118.061 115.97 L 118.061 114.424 L 118.273 115.116 L 118.273 115.401 L 118.485 114.953 L 118.485 115.278 L 118.696 113.773 L 118.696 113.04 L 118.908 111.371 L 118.908 110.354 L 119.12 111.208 L 119.12 110.639 L 119.331 111.046 L 119.331 110.801 L 119.543 108.848 L 119.543 108.807 L 119.755 108.441 L 119.755 108.685 L 119.966 107.83 L 119.966 105.795 L 120.178 106.202 L 120.178 106.121 L 120.39 104.167 L 120.39 103.435 L 120.601 103.394 L 120.601 103.353 L 120.813 103.801 L 120.813 102.295 L 121.025 101.929 L 121.025 100.464 L 121.236 100.504 L 121.236 100.911 L 121.448 100.423 L 121.448 100.382 L 121.66 99.202 L 121.66 98.876 L 121.871 99.283 L 121.871 97.493 L 122.083 96.027 L 122.083 96.353 L 122.295 99.161 L 122.295 103.842 L 122.506 108.644 L 122.506 114.505 L 122.718 117.191 L 122.718 120.04 L 122.93 122.564 L 122.93 124.11 L 123.141 126.145 L 123.141 125.25 L 123.353 123.256 L 123.353 122.523 L 123.565 121.546 L 123.565 121.465 L 123.776 121.18 L 123.776 120.366 L 123.988 120.529 L 123.988 120.569 L 124.2 120.895 L 124.2 120.569 L 124.411 120.61 L 124.411 119.796 L 124.623 118.209 L 124.623 116.988 L 124.835 116.337 L 124.835 115.93 L 125.046 115.889 L 125.046 115.36 L 125.258 114.79 L 125.258 114.18 L 125.47 115.441 L 125.47 116.215 L 125.681 115.767 L 125.681 115.523 L 125.893 114.505 L 125.893 114.912 L 126.105 115.726 L 126.105 114.139 L 126.316 112.226 L 126.316 110.557 L 126.528 111.29 L 126.528 111.086 L 126.74 111.005 L 126.74 112.47 L 126.951 111.697 L 126.951 110.557 L 127.163 110.272 L 127.163 110.069 L 127.375 109.54 L 127.375 108.034 L 127.586 107.749 L 127.586 107.83 L 127.798 107.179 L 127.798 107.301 L 128.01 107.098 L 128.01 105.51 L 128.221 105.103 L 128.221 105.266 L 128.433 104.615 L 128.433 102.702 L 128.645 102.295 L 128.645 103.516 L 128.856 103.313 L 128.856 102.417 L 129.068 100.504 L 129.068 99.609 L 129.28 100.586 L 129.28 100.342 L 129.491 99.812 L 129.491 100.342 L 129.703 101.563 L 129.703 102.824 L 129.915 102.906 L 129.915 106.243 L 130.126 108.604 L 130.126 112.104 L 130.338 115.482 L 130.338 115.482 L 130.55 116.784 L 130.55 115.808 L 130.761 114.18 L 130.761 116.418 L 130.973 116.906 L 130.973 116.662 L 131.185 114.953 L 131.185 114.057 L 131.396 115.523 L 131.396 115.319 L 131.608 114.424 L 131.608 114.668 L 131.82 114.871 L 131.82 116.092 L 132.031 116.622 L 132.031 115.889 L 132.243 114.749 L 132.243 114.505 L 132.455 115.278 L 132.455 114.18 L 132.666 113.976 L 132.666 113.854 L 132.878 113.162 L 132.878 112.714 L 133.09 111.249 L 133.09 111.575 L 133.301 112.714 L 133.301 111.371 L 133.513 112.226 L 133.513 111.412 L 133.725 108.441 L 133.725 108.604 L 133.936 107.993 L 133.936 107.586 L 134.148 108.929 L 134.148 107.016 L 134.36 106.202 L 134.36 106.162 L 134.571 105.592 L 134.571 105.144 L 134.783 103.109 L 134.783 102.621 L 134.995 102.824 L 134.995 101.725 L 135.206 101.359 L 135.206 101.603 L 135.418 100.83 L 135.418 97.615 L 135.63 98.103 L 135.63 97.248 L 135.841 95.498 L 135.841 96.109 L 136.053 94.481 L 136.053 94.114 L 136.265 94.684 L 136.265 92.364 L 136.476 92.69 L 136.476 93.463 L 136.688 92.771 L 136.688 92.731 L 136.9 90.167 L 136.9 91.469 L 137.111 94.318 L 137.111 97.655 L 137.323 103.191 L 137.323 107.545 L 137.535 110.557 L 137.535 113.976 L 137.746 116.011 L 137.746 118.453 L 137.958 115.848 L 137.958 114.546 L 138.17 116.866 L 138.17 116.54 L 138.381 115.645 L 138.381 116.133 L 138.593 115.889 L 138.593 115.726 L 138.805 115.97 L 138.805 115.685 L 139.016 116.092 L 139.016 116.215 L 139.228 116.418 L 139.228 116.092 L 139.44 115.808 L 139.44 116.377 L 139.651 115.93 L 139.651 114.505 L 139.863 114.994 L 139.863 114.424 L 140.075 111.819 L 140.075 109.987 L 140.286 109.336 L 140.286 109.662 L 140.498 109.051 L 140.498 110.394 L 140.71 111.208 L 140.71 112.145 L 140.921 111.86 L 140.921 111.778 L 141.133 111.29 L 141.133 111.086 L 141.345 110.72 L 141.345 109.865 L 141.556 109.173 L 141.556 107.261 L 141.768 105.917 L 141.768 105.917 L 141.98 104.289 L 141.98 104.289 L 142.191 104.819 L 142.191 104.167 L 142.403 103.598 L 142.403 103.313 L 142.615 102.539 L 142.615 102.051 L 142.826 101.278 L 142.826 100.993 L 143.038 100.179 L 143.038 99.812 L 143.25 98.632 L 143.25 98.225 L 143.461 97.208 L 143.461 96.19 L 143.673 96.719 L 143.673 95.742 L 143.885 95.376 L 143.885 94.969 L 144.096 93.87 L 144.096 93.707 L 144.308 94.196 L 144.308 94.847 L 144.52 98.795 L 144.52 102.743 L 144.731 107.464 L 144.731 110.557 L 144.943 113.65 L 144.943 116.988 L 145.155 119.674 L 145.155 120.244 L 145.366 122.686 L 145.366 123.5 L 145.578 122.32 L 145.578 121.424 L 145.79 121.017 L 145.79 121.506 L 146.001 121.668 L 146.001 121.506 L 146.213 121.587 L 146.213 121.546 L 146.425 121.261 L 146.425 119.348 L 146.636 120 L 146.636 120.447 L 146.848 120.04 L 146.848 121.302 L 147.06 120.325 L 147.06 120.244 L 147.271 119.633 L 147.271 119.389 L 147.483 120.081 L 147.483 118.209 L 147.695 118.25 L 147.695 117.843 L 147.906 116.54 L 147.906 116.337 L 148.118 114.627 L 148.118 114.342 L 148.33 114.383 L 148.33 112.511 L 148.541 110.801 L 148.541 109.255 L 148.753 108.929 L 148.753 109.458 L 148.965 108.685 L 148.965 108.156 L 149.176 108.115 L 149.176 107.423 L 149.388 107.464 L 149.388 105.592 L 149.6 103.272 L 149.6 104.859 L 149.811 104.9 L 149.811 105.551 L 150.023 104.289 L 150.023 102.377 L 150.235 102.051 L 150.235 101.4 L 150.446 100.749 L 150.446 99.772 L 150.658 98.876 L 150.658 99.487 L 150.87 99.365 L 150.87 97.248 L 151.081 89.922 L 151.081 80.276 L 151.293 77.631 L 151.293 76.125 L 151.505 74.009 L 151.505 72.177 L 151.716 72.462 L 151.716 72.014 L 151.928 70.305 L 151.928 69.369 L 152.14 72.747 L 152.14 76.084 L 152.351 79.91 L 152.351 82.067 L 152.563 82.759 L 152.563 84.265 L 152.775 85.608 L 152.775 86.259 L 152.986 88.864 L 152.986 87.765 L 153.198 88.661 L 153.198 90.981 L 153.41 91.713 L 153.41 93.3 L 153.621 94.277 L 153.621 94.114 L 153.833 93.016 L 153.833 93.056 L 154.045 92.975 L 154.045 94.237 L 154.256 93.87 L 154.256 94.806 L 154.468 96.394 L 154.468 94.277 L 154.68 93.3 L 154.68 95.335 L 154.891 95.987 L 154.891 95.335 L 155.103 94.644 L 155.103 94.928 L 155.315 96.882 L 155.315 93.952 L 155.526 93.626 L 155.526 92.934 L 155.738 92.446 L 155.738 93.097 L 155.95 93.911 L 155.95 94.521 L 156.162 93.911 L 156.162 91.388 L 156.373 92.771 L 156.373 93.016 L 156.585 93.341 L 156.585 90.411 L 156.797 88.62 L 156.797 91.062 L 157.008 91.225 L 157.008 89.963 L 157.22 89.312 L 157.22 88.823 L 157.432 90.126 L 157.432 92.486 L 157.643 95.498 L 157.643 98.673 L 157.855 101.196 L 157.855 102.702 L 158.067 105.348 L 158.067 109.173 L 158.278 109.825 L 158.278 112.348 L 158.49 112.429 L 158.49 109.825 L 158.702 111.778 L 158.702 112.552 L 158.913 111.86 L 158.913 113.447 L 159.125 114.18 L 159.125 113.895 L 159.337 113.406 L 159.337 113.243 L 159.548 112.552 L 159.548 113.243 L 159.76 114.709 L 159.76 113.813 L 159.972 113.773 L 159.972 112.104 L 160.183 112.063 L 160.183 114.261 L 160.395 115.116 L 160.395 114.22 L 160.607 112.877 L 160.607 112.877 L 160.818 112.796 L 160.818 112.592 L 161.03 112.511 L 161.03 111.819 L 161.242 112.877 L 161.242 113.04 L 161.453 112.511 L 161.453 112.348 L 161.665 111.778 L 161.665 111.493 L 161.877 110.801 L 161.877 110.11 L 162.088 109.458 L 162.088 108.4 L 162.3 107.301 L 162.3 105.022 L 162.512 105.633 L 162.512 104.534 L 162.723 104.127 L 162.723 103.313 L 162.935 101.4 L 162.935 102.661 L 163.147 103.028 L 163.147 102.865 L 163.358 103.598 L 163.358 102.173 L 163.57 97.533 L 163.57 95.376 L 163.782 95.091 L 163.782 94.644 L 163.993 96.434 L 163.993 96.923 L 164.205 96.841 L 164.205 94.644 L 164.417 93.626 L 164.417 93.83 L 164.628 93.585 L 164.628 93.056 L 164.84 91.225 L 164.84 93.26 L 165.052 97.411 L 165.052 100.749 L 165.263 105.144 L 165.263 106.691 L 165.475 110.72 L 165.475 113.325 L 165.687 111.493 L 165.687 112.145 L 165.898 111.127 L 165.898 111.778 L 166.11 111.046 L 166.11 111.982 L 166.322 113.243 L 166.322 112.145 L 166.533 114.79 L 166.533 115.563 L 166.745 116.337 L 166.745 116.947 L 166.957 115.197 L 166.957 113.895 L 167.168 114.098 L 167.168 115.604 L 167.38 114.912 L 167.38 113.854 L 167.592 115.238 L 167.592 114.139 L 167.803 114.464 L 167.803 114.749 L 168.015 113.04 L 168.015 113.081 L 168.227 113.773 L 168.227 113.488 L 168.438 112.836 L 168.438 112.796 L 168.65 112.429 L 168.65 110.435 L 168.862 105.266 L 168.862 106.08 L 169.073 107.505 L 169.073 106.935 L 169.285 108.359 L 169.285 107.057 L 169.497 107.057 L 169.497 108.034 L 169.708 105.958 L 169.708 106.731 L 169.92 105.063 L 169.92 104.737 L 170.132 105.144 L 170.132 102.865 L 170.343 102.824 L 170.343 102.295 L 170.555 101.278 L 170.555 99.243 L 170.767 99.121 L 170.767 100.586 L 170.978 100.26 L 170.978 99.446 L 171.19 98.591 L 171.19 98.917 L 171.402 97.696 L 171.402 96.841 L 171.613 97.289 L 171.613 95.62 L 171.825 95.661 L 171.825 93.952 L 172.037 91.835 L 172.037 94.196 L 172.248 96.841 L 172.248 101.033 L 172.46 103.028 L 172.46 104.778 L 172.672 104.737 L 172.672 103.76 L 172.883 106.528 L 172.883 108.197 L 173.095 109.133 L 173.095 109.784 L 173.307 109.784 L 173.307 112.185 L 173.518 112.063 L 173.518 111.412 L 173.73 112.307 L 173.73 112.633 L 173.942 113.813 L 173.942 115.36 L 174.153 113.895 L 174.153 112.999 L 174.365 114.017 L 174.365 113.121 L 174.577 113.162 L 174.577 110.557 L 174.788 102.865 L 174.788 102.946 L 175 104.696 L 175 106.731 L 175.212 108.929 L 175.212 109.58 L 175.423 110.801 L 175.423 110.232 L 175.635 109.703 L 175.635 110.72 L 175.847 110.435 L 175.847 111.371 L 176.058 111.534 L 176.058 109.499 L 176.27 109.255 L 176.27 108.563 L 176.482 107.383 L 176.482 106.162 L 176.693 105.714 L 176.693 105.877 L 176.905 105.51 L 176.905 104.493 L 177.117 102.865 L 177.117 102.132 L 177.328 100.667 L 177.328 99.853 L 177.54 99.202 L 177.54 99.772 L 177.752 100.504 L 177.752 99.202 L 177.963 98.184 L 177.963 96.231 L 178.175 88.416 L 178.175 79.992 L 178.387 79.544 L 178.387 78.526 L 178.598 75.27 L 178.598 73.113 L 178.81 70.631 L 178.81 72.421 L 179.022 73.846 L 179.022 75.392 L 179.233 77.183 L 179.233 79.055 L 179.445 84.428 L 179.445 89.068 L 179.657 91.306 L 179.657 95.702 L 179.868 95.987 L 179.868 98.429 L 180.08 100.952 L 180.08 100.871 L 180.292 102.214 L 180.292 104.045 L 180.503 104.534 L 180.503 104.412 L 180.715 105.551 L 180.715 105.551 L 180.927 104.819 L 180.927 103.272 L 181.138 101.766 L 181.138 102.865 L 181.35 104.127 L 181.35 103.516 L 181.562 105.063 L 181.562 103.964 L 181.773 104.208 L 181.773 103.231 L 181.985 102.173 L 181.985 103.15 L 182.197 99.487 L 182.197 92.975 L 182.408 93.83 L 182.408 95.335 L 182.62 97.574 L 182.62 99.161 L 182.832 97.981 L 182.832 98.103 L 183.043 98.307 L 183.043 98.632 L 183.255 96.923 L 183.255 95.661 L 183.467 96.516 L 183.467 96.027 L 183.678 96.027 L 183.678 95.539 L 183.89 93.423 L 183.89 93.87 L 184.102 92.771 L 184.102 87.847 L 184.313 88.335 L 184.313 89.678 L 184.525 87.073 L 184.525 72.259 L 184.737 65.909 L 184.737 67.456 L 184.948 69.979 L 184.948 71.689 L 185.16 73.887 L 185.16 76.288 L 185.372 78.364 L 185.372 77.834 L 185.583 76.329 L 185.583 75.148 L 185.795 74.619 L 185.795 77.346 L 186.007 78.079 L 186.007 73.357 L 186.218 74.171 L 186.218 76.044 L 186.43 75.962 L 186.43 79.462 L 186.642 79.422 L 186.642 82.108 L 186.853 87.643 L 186.853 91.51 L 187.065 94.969 L 187.065 97.248 L 187.277 98.876 L 187.277 100.952 L 187.488 101.563 L 187.488 99.202 L 187.7 100.301 L 187.7 101.196 L 187.912 101.847 L 187.912 103.191 L 188.123 104.574 L 188.123 103.231 L 188.335 103.76 L 188.335 103.109 L 188.547 103.475 L 188.547 105.022 L 188.758 102.784 L 188.758 102.661 L 188.97 100.993 L 188.97 99.812 L 189.182 100.097 L 189.182 100.789 L 189.393 102.743 L 189.393 103.638 L 189.605 103.679 L 189.605 103.679 L 189.817 102.499 L 189.817 102.173 L 190.028 102.784 L 190.028 101.888 L 190.24 103.475 L 190.24 102.295 L 190.452 100.342 L 190.452 99.283 L 190.663 98.836 L 190.663 99.894 L 190.875 100.708 L 190.875 101.318 L 191.087 102.377 L 191.087 102.336 L 191.298 106.121 L 191.298 108.644 L 191.51 109.825 L 191.51 112.429 L 191.722 111.86 L 191.722 114.017 L 191.933 115.848 L 191.933 117.802 L 192.145 119.959 L 192.145 120.447 L 192.357 122.523 L 192.357 124.965 L 192.568 126.634 L 192.568 128.343 L 192.78 128.099 L 192.78 132.21 L 192.992 133.431 L 192.992 133.146 L 193.203 136.32 L 193.203 138.844 L 193.415 140.757 L 193.415 141.978 L 193.627 143.158 L 193.627 146.414 L 193.838 147.065 L 193.838 147.309 L 194.05 150.036 L 194.05 150.972 L 194.262 153.455 L 194.262 156.263 L 194.474 156.833 L 194.474 158.38 L 194.685 160.089 L 194.685 162.938 L 194.897 161.839 L 194.897 161.554 L 195.109 163.915 L 195.109 163.793 L 195.32 164.607 L 195.32 165.746 L 195.532 166.845 L 195.532 167.7 L 195.744 168.026 L 195.744 169.857 L 195.955 169.287 L 195.955 170.427 L 196.167 170.793 L 196.167 169.694 L 196.379 171.933 L 196.379 171.729 L 196.59 172.258 L 196.59 172.503 L 196.802 171.729 L 196.802 173.683 L 197.014 173.195 L 197.014 173.846 L 197.225 175.433 L 197.225 175.352 L 197.437 175.718 L 197.437 175.107 L 197.649 175.596 L 197.649 177.061 L 197.86 178.282 L 197.86 179.096 L 198.072 178.323 L 198.072 178.119 L 198.284 177.997 L 198.284 178.689 L 198.495 178.73 L 198.495 179.259 L 198.707 180.602 L 198.707 180.683 L 198.919 181.172 L 198.919 181.212 L 199.13 181.497 L 199.13 182.352 L 199.342 182.718 L 199.342 183.451 L 199.554 184.468 L 199.554 184.428 L 199.765 184.346 L 199.765 184.916 L 199.977 185.689 L 199.977 186.015 L 200.189 186.219 L 200.189 184.468 L 200.4 185.893 L 200.4 186.544 L 200.612 184.875 L 200.612 185.282 L 200.824 184.713 L 200.824 185.201 L 201.035 185.689 L 201.035 186.015 L 201.247 186.788 L 201.247 186.544 L 201.459 186.91 L 201.459 187.033 L 201.67 186.91 L 201.67 187.399 L 201.882 187.195 L 286.973 187.643" fill="none"/><path d=" M 63.239 188.986 L 63.027 187.602 L 63.239 186.788 L 63.239 185.323 L 63.451 183.899 L 63.451 183.125 L 63.662 182.271 L 63.662 181.172 L 63.874 180.276 L 63.874 179.381 L 64.086 176.98 L 64.086 175.392 L 64.297 175.881 L 64.297 174.253 L 64.509 170.793 L 64.509 170.142 L 64.721 169.816 L 64.721 166.967 L 64.932 166.52 L 64.932 164.2 L 65.144 161.88 L 65.144 160.985 L 65.356 158.665 L 65.356 156.385 L 65.567 154.717 L 65.567 152.56 L 65.779 150.443 L 65.779 148.327 L 65.991 146.902 L 65.991 145.274 L 66.202 143.646 L 66.202 141.896 L 66.414 140.065 L 66.414 138.03 L 66.626 136.442 L 66.626 134.855 L 66.837 132.902 L 66.837 130.419 L 67.049 128.994 L 67.049 127.611 L 67.261 125.738 L 67.261 123.988 L 67.472 122.523 L 67.472 120.692 L 67.684 119.715 L 67.684 117.802 L 67.896 116.622 L 67.896 115.36 L 68.107 113.488 L 68.107 112.552 L 68.319 110.272 L 68.319 108.563 L 68.531 107.423 L 68.531 105.917 L 68.742 104.656 L 68.742 103.313 L 68.954 101.97 L 68.954 100.586 L 69.166 98.836 L 69.166 97.574 L 69.377 96.027 L 69.377 94.847 L 69.589 94.928 L 69.589 95.865 L 69.801 102.051 L 69.801 111.249 L 70.012 119.104 L 70.012 124.965 L 70.224 129.035 L 70.224 131.884 L 70.436 134.407 L 70.436 136.076 L 70.647 137.338 L 70.647 138.396 L 70.859 139.454 L 70.859 140.797 L 71.071 137.541 L 71.071 128.709 L 71.282 125.535 L 71.282 126.267 L 71.494 125.413 L 71.494 126.023 L 71.706 125.657 L 71.706 125.087 L 71.917 125.169 L 71.917 124.68 L 72.129 124.639 L 72.129 124.599 L 72.341 123.866 L 72.341 124.11 L 72.552 123.215 L 72.552 123.052 L 72.764 122.523 L 72.764 121.994 L 72.976 122.035 L 72.976 121.628 L 73.187 121.18 L 73.187 120.692 L 73.399 119.755 L 73.399 119.43 L 73.611 118.697 L 73.611 118.412 L 73.822 118.25 L 73.822 117.313 L 74.034 117.395 L 74.034 117.354 L 74.246 116.092 L 74.246 115.238 L 74.457 114.261 L 74.457 113.61 L 74.669 113.488 L 74.669 112.714 L 74.881 112.063 L 74.881 111.168 L 75.092 110.598 L 75.092 110.028 L 75.304 109.255 L 75.304 109.214 L 75.516 108.482 L 75.516 107.912 L 75.727 107.505 L 75.727 106.365 L 75.939 105.877 L 75.939 105.633 L 76.151 104.737 L 76.151 104.615 L 76.362 103.964 L 76.362 103.638 L 76.574 103.028 L 76.574 101.929 L 76.786 101.766 L 76.786 101.033 L 76.997 100.464 L 76.997 100.138 L 77.209 99.568 L 77.209 99.039 L 77.421 97.859 L 77.421 95.458 L 77.632 96.027 L 77.632 101.685 L 77.844 107.912 L 77.844 113.121 L 78.056 118.697 L 78.056 122.93 L 78.267 125.942 L 78.267 128.425 L 78.479 126.471 L 78.479 119.959 L 78.691 114.953 L 78.691 115.36 L 78.902 115.034 L 78.902 114.994 L 79.114 115.685 L 79.114 115.156 L 79.326 115.645 L 79.326 115.93 L 79.537 115.848 L 79.537 116.255 L 79.749 115.441 L 79.749 116.011 L 79.961 115.401 L 79.961 114.79 L 80.172 115.116 L 80.172 114.464 L 80.384 114.383 L 80.384 114.424 L 80.596 114.546 L 80.596 114.505 L 80.807 114.22 L 80.807 114.098 L 81.019 113.895 L 81.019 113.773 L 81.231 113.406 L 81.231 113.61 L 81.443 114.261 L 81.443 113.976 L 81.654 112.999 L 81.654 112.429 L 81.866 111.778 L 81.866 111.331 L 82.078 110.761 L 82.078 110.354 L 82.289 109.703 L 82.289 108.929 L 82.501 108.319 L 82.501 107.627 L 82.713 107.016 L 82.713 107.301 L 82.924 106.243 L 82.924 105.429 L 83.136 105.103 L 83.136 104.371 L 83.348 104.045 L 83.348 103.394 L 83.559 103.272 L 83.559 102.417 L 83.771 103.068 L 83.771 104.005 L 83.983 103.598 L 83.983 104.452 L 84.194 104.574 L 84.194 104.534 L 84.406 105.592 L 84.406 105.063 L 84.618 105.348 L 84.618 105.917 L 84.829 105.022 L 84.829 106.121 L 85.041 108.726 L 85.041 114.139 L 85.253 119.471 L 85.253 123.256 L 85.464 126.471 L 85.464 129.564 L 85.676 131.314 L 85.676 133.96 L 85.888 135.588 L 85.888 137.379 L 86.099 139.861 L 86.099 142.466 L 86.311 145.193 L 86.311 146.373 L 86.523 146.088 L 86.523 145.071 L 86.734 143.321 L 86.734 141.815 L 86.946 139.739 L 86.946 137.379 L 87.158 135.588 L 87.158 133.716 L 87.369 133.105 L 87.369 132.535 L 87.581 132.128 L 87.581 131.925 L 87.793 131.192 L 87.793 130.948 L 88.004 130.541 L 88.004 130.053 L 88.216 129.849 L 88.216 129.279 L 88.428 128.791 L 88.428 128.058 L 88.639 127.855 L 88.639 127.855 L 88.851 127.57 L 88.851 127.611 L 89.063 126.552 L 89.063 125.372 L 89.274 124.924 L 89.274 124.07 L 89.486 123.5 L 89.486 123.174 L 89.698 122.889 L 89.698 122.075 L 89.909 121.302 L 89.909 121.261 L 90.121 120.936 L 90.121 120.732 L 90.333 120.529 L 90.333 120 L 90.544 119.918 L 90.544 119.471 L 90.756 118.941 L 90.756 118.657 L 90.968 118.209 L 90.968 118.209 L 91.179 118.209 L 91.179 117.883 L 91.391 117.843 L 91.391 117.476 L 91.603 117.11 L 91.603 117.029 L 91.814 116.825 L 91.814 116.784 L 92.026 116.703 L 92.026 116.499 L 92.238 116.581 L 92.238 116.581 L 92.449 116.174 L 92.449 116.092 L 92.661 115.645 L 92.661 115.238 L 92.873 115.441 L 92.873 115.197 L 93.084 114.912 L 93.084 114.139 L 93.296 112.999 L 93.296 111.738 L 93.508 104.778 L 93.508 106.324 L 93.719 108.766 L 93.719 107.668 L 93.931 110.435 L 93.931 111.941 L 94.143 107.912 L 94.143 100.749 L 94.354 99.975 L 94.354 100.545 L 94.566 98.917 L 94.566 96.231 L 94.778 97.167 L 94.778 96.109 L 94.989 94.888 L 94.989 93.26 L 95.201 93.219 L 95.201 93.097 L 95.413 92.649 L 95.413 92.69 L 95.624 96.434 L 95.624 98.673 L 95.836 96.963 L 95.836 98.266 L 96.048 98.551 L 96.048 101.44 L 96.259 102.132 L 96.259 101.97 L 96.471 103.516 L 96.471 104.371 L 96.683 105.877 L 96.683 106.324 L 96.894 106.813 L 96.894 107.83 L 97.106 105.836 L 97.106 106.731 L 97.318 105.795 L 97.318 104.981 L 97.529 106.731 L 97.529 106.08 L 97.741 107.383 L 97.741 108.522 L 97.953 108.156 L 97.953 108.685 L 98.164 108.441 L 98.164 109.662 L 98.376 111.086 L 98.376 111.208 L 98.588 112.592 L 98.588 112.877 L 98.799 112.552 L 98.799 113.61 L 99.011 113.162 L 99.011 112.959 L 99.223 114.464 L 99.223 114.668 L 99.434 115.401 L 99.434 115.034 L 99.646 114.912 L 99.646 115.685 L 99.858 115.726 L 99.858 115.97 L 100.069 115.645 L 100.069 116.459 L 100.281 117.476 L 100.281 116.581 L 100.493 117.395 L 100.493 116.825 L 100.704 116.906 L 100.704 119.104 L 100.916 121.343 L 100.916 125.169 L 101.128 127.651 L 101.128 129.361 L 101.339 132.332 L 101.339 133.471 L 101.551 135.751 L 101.551 135.344 L 101.763 132.006 L 101.763 128.14 L 101.974 124.68 L 101.974 124.232 L 102.186 123.174 L 102.186 122.279 L 102.398 121.139 L 102.398 120.447 L 102.609 120.081 L 102.609 119.796 L 102.821 119.104 L 102.821 118.494 L 103.033 117.802 L 103.033 117.313 L 103.244 116.744 L 103.244 116.215 L 103.456 115.97 L 103.456 115.319 L 103.668 115.278 L 103.668 114.627 L 103.879 112.348 L 103.879 112.999 L 104.091 111.941 L 104.091 111.249 L 104.303 111.29 L 104.303 110.15 L 104.514 109.296 L 104.514 108.644 L 104.726 109.133 L 104.726 109.255 L 104.938 107.952 L 104.938 105.47 L 105.149 104.941 L 105.149 104.249 L 105.361 105.266 L 105.361 103.72 L 105.573 102.295 L 105.573 102.458 L 105.784 102.417 L 105.784 101.807 L 105.996 100.952 L 105.996 100.301 L 106.208 99.487 L 106.208 98.429 L 106.419 98.551 L 106.419 97.126 L 106.631 97.167 L 106.631 96.76 L 106.843 96.353 L 106.843 96.801 L 107.054 94.684 L 107.054 94.928 L 107.266 93.87 L 107.266 92.69 L 107.478 92.649 L 107.478 90.126 L 107.689 89.353 L 107.689 89.393 L 107.901 89.963 L 107.901 92.975 L 108.113 91.591 L 108.113 88.823 L 108.324 93.545 L 108.324 97.208 L 108.536 98.917 L 108.536 100.993 L 108.748 99.609 L 108.748 101.766 L 108.959 103.72 L 108.959 104.249 L 109.171 104.656 L 109.171 103.964 L 109.383 106.65 L 109.383 104.819 L 109.594 104.574 L 109.594 105.836 L 109.806 104.9 L 109.806 107.098 L 110.018 104.452 L 110.018 104.615 L 110.229 105.47 L 110.229 104.819 L 110.441 106.935 L 110.441 104.289 L 110.653 103.557 L 110.653 104.696 L 110.864 102.132 L 110.864 104.412 L 111.076 104.005 L 111.076 103.109 L 111.288 105.755 L 111.288 103.231 L 111.499 101.97 L 111.499 101.807 L 111.711 100.097 L 111.711 102.417 L 111.923 101.481 L 111.923 100.708 L 112.134 101.685 L 112.134 99.161 L 112.346 99.812 L 112.346 99.975 L 112.558 98.632 L 112.558 98.469 L 112.769 97.126 L 112.769 97.696 L 112.981 98.347 L 112.981 96.475 L 113.193 96.638 L 113.193 95.865 L 113.404 94.033 L 113.404 94.074 L 113.616 93.26 L 113.616 93.056 L 113.828 91.713 L 113.828 90.655 L 114.039 90.329 L 114.039 89.556 L 114.251 89.108 L 114.251 89.027 L 114.463 93.178 L 114.463 98.673 L 114.674 103.964 L 114.674 109.743 L 114.886 109.173 L 114.886 114.098 L 115.098 119.023 L 115.098 119.511 L 115.309 122.32 L 115.309 123.744 L 115.521 123.215 L 115.521 123.703 L 115.733 123.907 L 115.733 122.808 L 115.944 120.569 L 115.944 120.04 L 116.156 119.43 L 116.156 119.145 L 116.368 118.941 L 116.368 118.412 L 116.579 118.779 L 116.579 117.802 L 116.791 118.005 L 116.791 118.779 L 117.003 118.534 L 117.003 117.598 L 117.214 117.883 L 117.214 117.11 L 117.426 115.93 L 117.426 116.377 L 117.638 114.912 L 117.638 114.831 L 117.849 116.011 L 117.849 115.97 L 118.061 115.97 L 118.061 114.424 L 118.273 115.116 L 118.273 115.401 L 118.485 114.953 L 118.485 115.278 L 118.696 113.773 L 118.696 113.04 L 118.908 111.371 L 118.908 110.354 L 119.12 111.208 L 119.12 110.639 L 119.331 111.046 L 119.331 110.801 L 119.543 108.848 L 119.543 108.807 L 119.755 108.441 L 119.755 108.685 L 119.966 107.83 L 119.966 105.795 L 120.178 106.202 L 120.178 106.121 L 120.39 104.167 L 120.39 103.435 L 120.601 103.394 L 120.601 103.353 L 120.813 103.801 L 120.813 102.295 L 121.025 101.929 L 121.025 100.464 L 121.236 100.504 L 121.236 100.911 L 121.448 100.423 L 121.448 100.382 L 121.66 99.202 L 121.66 98.876 L 121.871 99.283 L 121.871 97.493 L 122.083 96.027 L 122.083 96.353 L 122.295 99.161 L 122.295 103.842 L 122.506 108.644 L 122.506 114.505 L 122.718 117.191 L 122.718 120.04 L 122.93 122.564 L 122.93 124.11 L 123.141 126.145 L 123.141 125.25 L 123.353 123.256 L 123.353 122.523 L 123.565 121.546 L 123.565 121.465 L 123.776 121.18 L 123.776 120.366 L 123.988 120.529 L 123.988 120.569 L 124.2 120.895 L 124.2 120.569 L 124.411 120.61 L 124.411 119.796 L 124.623 118.209 L 124.623 116.988 L 124.835 116.337 L 124.835 115.93 L 125.046 115.889 L 125.046 115.36 L 125.258 114.79 L 125.258 114.18 L 125.47 115.441 L 125.47 116.215 L 125.681 115.767 L 125.681 115.523 L 125.893 114.505 L 125.893 114.912 L 126.105 115.726 L 126.105 114.139 L 126.316 112.226 L 126.316 110.557 L 126.528 111.29 L 126.528 111.086 L 126.74 111.005 L 126.74 112.47 L 126.951 111.697 L 126.951 110.557 L 127.163 110.272 L 127.163 110.069 L 127.375 109.54 L 127.375 108.034 L 127.586 107.749 L 127.586 107.83 L 127.798 107.179 L 127.798 107.301 L 128.01 107.098 L 128.01 105.51 L 128.221 105.103 L 128.221 105.266 L 128.433 104.615 L 128.433 102.702 L 128.645 102.295 L 128.645 103.516 L 128.856 103.313 L 128.856 102.417 L 129.068 100.504 L 129.068 99.609 L 129.28 100.586 L 129.28 100.342 L 129.491 99.812 L 129.491 100.342 L 129.703 101.563 L 129.703 102.824 L 129.915 102.906 L 129.915 106.243 L 130.126 108.604 L 130.126 112.104 L 130.338 115.482 L 130.338 115.482 L 130.55 116.784 L 130.55 115.808 L 130.761 114.18 L 130.761 116.418 L 130.973 116.906 L 130.973 116.662 L 131.185 114.953 L 131.185 114.057 L 131.396 115.523 L 131.396 115.319 L 131.608 114.424 L 131.608 114.668 L 131.82 114.871 L 131.82 116.092 L 132.031 116.622 L 132.031 115.889 L 132.243 114.749 L 132.243 114.505 L 132.455 115.278 L 132.455 114.18 L 132.666 113.976 L 132.666 113.854 L 132.878 113.162 L 132.878 112.714 L 133.09 111.249 L 133.09 111.575 L 133.301 112.714 L 133.301 111.371 L 133.513 112.226 L 133.513 111.412 L 133.725 108.441 L 133.725 108.604 L 133.936 107.993 L 133.936 107.586 L 134.148 108.929 L 134.148 107.016 L 134.36 106.202 L 134.36 106.162 L 134.571 105.592 L 134.571 105.144 L 134.783 103.109 L 134.783 102.621 L 134.995 102.824 L 134.995 101.725 L 135.206 101.359 L 135.206 101.603 L 135.418 100.83 L 135.418 97.615 L 135.63 98.103 L 135.63 97.248 L 135.841 95.498 L 135.841 96.109 L 136.053 94.481 L 136.053 94.114 L 136.265 94.684 L 136.265 92.364 L 136.476 92.69 L 136.476 93.463 L 136.688 92.771 L 136.688 92.731 L 136.9 90.167 L 136.9 91.469 L 137.111 94.318 L 137.111 97.655 L 137.323 103.191 L 137.323 107.545 L 137.535 110.557 L 137.535 113.976 L 137.746 116.011 L 137.746 118.453 L 137.958 115.848 L 137.958 114.546 L 138.17 116.866 L 138.17 116.54 L 138.381 115.645 L 138.381 116.133 L 138.593 115.889 L 138.593 115.726 L 138.805 115.97 L 138.805 115.685 L 139.016 116.092 L 139.016 116.215 L 139.228 116.418 L 139.228 116.092 L 139.44 115.808 L 139.44 116.377 L 139.651 115.93 L 139.651 114.505 L 139.863 114.994 L 139.863 114.424 L 140.075 111.819 L 140.075 109.987 L 140.286 109.336 L 140.286 109.662 L 140.498 109.051 L 140.498 110.394 L 140.71 111.208 L 140.71 112.145 L 140.921 111.86 L 140.921 111.778 L 141.133 111.29 L 141.133 111.086 L 141.345 110.72 L 141.345 109.865 L 141.556 109.173 L 141.556 107.261 L 141.768 105.917 L 141.768 105.917 L 141.98 104.289 L 141.98 104.289 L 142.191 104.819 L 142.191 104.167 L 142.403 103.598 L 142.403 103.313 L 142.615 102.539 L 142.615 102.051 L 142.826 101.278 L 142.826 100.993 L 143.038 100.179 L 143.038 99.812 L 143.25 98.632 L 143.25 98.225 L 143.461 97.208 L 143.461 96.19 L 143.673 96.719 L 143.673 95.742 L 143.885 95.376 L 143.885 94.969 L 144.096 93.87 L 144.096 93.707 L 144.308 94.196 L 144.308 94.847 L 144.52 98.795 L 144.52 102.743 L 144.731 107.464 L 144.731 110.557 L 144.943 113.65 L 144.943 116.988 L 145.155 119.674 L 145.155 120.244 L 145.366 122.686 L 145.366 123.5 L 145.578 122.32 L 145.578 121.424 L 145.79 121.017 L 145.79 121.506 L 146.001 121.668 L 146.001 121.506 L 146.213 121.587 L 146.213 121.546 L 146.425 121.261 L 146.425 119.348 L 146.636 120 L 146.636 120.447 L 146.848 120.04 L 146.848 121.302 L 147.06 120.325 L 147.06 120.244 L 147.271 119.633 L 147.271 119.389 L 147.483 120.081 L 147.483 118.209 L 147.695 118.25 L 147.695 117.843 L 147.906 116.54 L 147.906 116.337 L 148.118 114.627 L 148.118 114.342 L 148.33 114.383 L 148.33 112.511 L 148.541 110.801 L 148.541 109.255 L 148.753 108.929 L 148.753 109.458 L 148.965 108.685 L 148.965 108.156 L 149.176 108.115 L 149.176 107.423 L 149.388 107.464 L 149.388 105.592 L 149.6 103.272 L 149.6 104.859 L 149.811 104.9 L 149.811 105.551 L 150.023 104.289 L 150.023 102.377 L 150.235 102.051 L 150.235 101.4 L 150.446 100.749 L 150.446 99.772 L 150.658 98.876 L 150.658 99.487 L 150.87 99.365 L 150.87 97.248 L 151.081 89.922 L 151.081 80.276 L 151.293 77.631 L 151.293 76.125 L 151.505 74.009 L 151.505 72.177 L 151.716 72.462 L 151.716 72.014 L 151.928 70.305 L 151.928 69.369 L 152.14 72.747 L 152.14 76.084 L 152.351 79.91 L 152.351 82.067 L 152.563 82.759 L 152.563 84.265 L 152.775 85.608 L 152.775 86.259 L 152.986 88.864 L 152.986 87.765 L 153.198 88.661 L 153.198 90.981 L 153.41 91.713 L 153.41 93.3 L 153.621 94.277 L 153.621 94.114 L 153.833 93.016 L 153.833 93.056 L 154.045 92.975 L 154.045 94.237 L 154.256 93.87 L 154.256 94.806 L 154.468 96.394 L 154.468 94.277 L 154.68 93.3 L 154.68 95.335 L 154.891 95.987 L 154.891 95.335 L 155.103 94.644 L 155.103 94.928 L 155.315 96.882 L 155.315 93.952 L 155.526 93.626 L 155.526 92.934 L 155.738 92.446 L 155.738 93.097 L 155.95 93.911 L 155.95 94.521 L 156.162 93.911 L 156.162 91.388 L 156.373 92.771 L 156.373 93.016 L 156.585 93.341 L 156.585 90.411 L 156.797 88.62 L 156.797 91.062 L 157.008 91.225 L 157.008 89.963 L 157.22 89.312 L 157.22 88.823 L 157.432 90.126 L 157.432 92.486 L 157.643 95.498 L 157.643 98.673 L 157.855 101.196 L 157.855 102.702 L 158.067 105.348 L 158.067 109.173 L 158.278 109.825 L 158.278 112.348 L 158.49 112.429 L 158.49 109.825 L 158.702 111.778 L 158.702 112.552 L 158.913 111.86 L 158.913 113.447 L 159.125 114.18 L 159.125 113.895 L 159.337 113.406 L 159.337 113.243 L 159.548 112.552 L 159.548 113.243 L 159.76 114.709 L 159.76 113.813 L 159.972 113.773 L 159.972 112.104 L 160.183 112.063 L 160.183 114.261 L 160.395 115.116 L 160.395 114.22 L 160.607 112.877 L 160.607 112.877 L 160.818 112.796 L 160.818 112.592 L 161.03 112.511 L 161.03 111.819 L 161.242 112.877 L 161.242 113.04 L 161.453 112.511 L 161.453 112.348 L 161.665 111.778 L 161.665 111.493 L 161.877 110.801 L 161.877 110.11 L 162.088 109.458 L 162.088 108.4 L 162.3 107.301 L 162.3 105.022 L 162.512 105.633 L 162.512 104.534 L 162.723 104.127 L 162.723 103.313 L 162.935 101.4 L 162.935 102.661 L 163.147 103.028 L 163.147 102.865 L 163.358 103.598 L 163.358 102.173 L 163.57 97.533 L 163.57 95.376 L 163.782 95.091 L 163.782 94.644 L 163.993 96.434 L 163.993 96.923 L 164.205 96.841 L 164.205 94.644 L 164.417 93.626 L 164.417 93.83 L 164.628 93.585 L 164.628 93.056 L 164.84 91.225 L 164.84 93.26 L 165.052 97.411 L 165.052 100.749 L 165.263 105.144 L 165.263 106.691 L 165.475 110.72 L 165.475 113.325 L 165.687 111.493 L 165.687 112.145 L 165.898 111.127 L 165.898 111.778 L 166.11 111.046 L 166.11 111.982 L 166.322 113.243 L 166.322 112.145 L 166.533 114.79 L 166.533 115.563 L 166.745 116.337 L 166.745 116.947 L 166.957 115.197 L 166.957 113.895 L 167.168 114.098 L 167.168 115.604 L 167.38 114.912 L 167.38 113.854 L 167.592 115.238 L 167.592 114.139 L 167.803 114.464 L 167.803 114.749 L 168.015 113.04 L 168.015 113.081 L 168.227 113.773 L 168.227 113.488 L 168.438 112.836 L 168.438 112.796 L 168.65 112.429 L 168.65 110.435 L 168.862 105.266 L 168.862 106.08 L 169.073 107.505 L 169.073 106.935 L 169.285 108.359 L 169.285 107.057 L 169.497 107.057 L 169.497 108.034 L 169.708 105.958 L 169.708 106.731 L 169.92 105.063 L 169.92 104.737 L 170.132 105.144 L 170.132 102.865 L 170.343 102.824 L 170.343 102.295 L 170.555 101.278 L 170.555 99.243 L 170.767 99.121 L 170.767 100.586 L 170.978 100.26 L 170.978 99.446 L 171.19 98.591 L 171.19 98.917 L 171.402 97.696 L 171.402 96.841 L 171.613 97.289 L 171.613 95.62 L 171.825 95.661 L 171.825 93.952 L 172.037 91.835 L 172.037 94.196 L 172.248 96.841 L 172.248 101.033 L 172.46 103.028 L 172.46 104.778 L 172.672 104.737 L 172.672 103.76 L 172.883 106.528 L 172.883 108.197 L 173.095 109.133 L 173.095 109.784 L 173.307 109.784 L 173.307 112.185 L 173.518 112.063 L 173.518 111.412 L 173.73 112.307 L 173.73 112.633 L 173.942 113.813 L 173.942 115.36 L 174.153 113.895 L 174.153 112.999 L 174.365 114.017 L 174.365 113.121 L 174.577 113.162 L 174.577 110.557 L 174.788 102.865 L 174.788 102.946 L 175 104.696 L 175 106.731 L 175.212 108.929 L 175.212 109.58 L 175.423 110.801 L 175.423 110.232 L 175.635 109.703 L 175.635 110.72 L 175.847 110.435 L 175.847 111.371 L 176.058 111.534 L 176.058 109.499 L 176.27 109.255 L 176.27 108.563 L 176.482 107.383 L 176.482 106.162 L 176.693 105.714 L 176.693 105.877 L 176.905 105.51 L 176.905 104.493 L 177.117 102.865 L 177.117 102.132 L 177.328 100.667 L 177.328 99.853 L 177.54 99.202 L 177.54 99.772 L 177.752 100.504 L 177.752 99.202 L 177.963 98.184 L 177.963 96.231 L 178.175 88.416 L 178.175 79.992 L 178.387 79.544 L 178.387 78.526 L 178.598 75.27 L 178.598 73.113 L 178.81 70.631 L 178.81 72.421 L 179.022 73.846 L 179.022 75.392 L 179.233 77.183 L 179.233 79.055 L 179.445 84.428 L 179.445 89.068 L 179.657 91.306 L 179.657 95.702 L 179.868 95.987 L 179.868 98.429 L 180.08 100.952 L 180.08 100.871 L 180.292 102.214 L 180.292 104.045 L 180.503 104.534 L 180.503 104.412 L 180.715 105.551 L 180.715 105.551 L 180.927 104.819 L 180.927 103.272 L 181.138 101.766 L 181.138 102.865 L 181.35 104.127 L 181.35 103.516 L 181.562 105.063 L 181.562 103.964 L 181.773 104.208 L 181.773 103.231 L 181.985 102.173 L 181.985 103.15 L 182.197 99.487 L 182.197 92.975 L 182.408 93.83 L 182.408 95.335 L 182.62 97.574 L 182.62 99.161 L 182.832 97.981 L 182.832 98.103 L 183.043 98.307 L 183.043 98.632 L 183.255 96.923 L 183.255 95.661 L 183.467 96.516 L 183.467 96.027 L 183.678 96.027 L 183.678 95.539 L 183.89 93.423 L 183.89 93.87 L 184.102 92.771 L 184.102 87.847 L 184.313 88.335 L 184.313 89.678 L 184.525 87.073 L 184.525 72.259 L 184.737 65.909 L 184.737 67.456 L 184.948 69.979 L 184.948 71.689 L 185.16 73.887 L 185.16 76.288 L 185.372 78.364 L 185.372 77.834 L 185.583 76.329 L 185.583 75.148 L 185.795 74.619 L 185.795 77.346 L 186.007 78.079 L 186.007 73.357 L 186.218 74.171 L 186.218 76.044 L 186.43 75.962 L 186.43 79.462 L 186.642 79.422 L 186.642 82.108 L 186.853 87.643 L 186.853 91.51 L 187.065 94.969 L 187.065 97.248 L 187.277 98.876 L 187.277 100.952 L 187.488 101.563 L 187.488 99.202 L 187.7 100.301 L 187.7 101.196 L 187.912 101.847 L 187.912 103.191 L 188.123 104.574 L 188.123 103.231 L 188.335 103.76 L 188.335 103.109 L 188.547 103.475 L 188.547 105.022 L 188.758 102.784 L 188.758 102.661 L 188.97 100.993 L 188.97 99.812 L 189.182 100.097 L 189.182 100.789 L 189.393 102.743 L 189.393 103.638 L 189.605 103.679 L 189.605 103.679 L 189.817 102.499 L 189.817 102.173 L 190.028 102.784 L 190.028 101.888 L 190.24 103.475 L 190.24 102.295 L 190.452 100.342 L 190.452 99.283 L 190.663 98.836 L 190.663 99.894 L 190.875 100.708 L 190.875 101.318 L 191.087 102.377 L 191.087 102.336 L 191.298 106.121 L 191.298 108.644 L 191.51 109.825 L 191.51 112.429 L 191.722 111.86 L 191.722 114.017 L 191.933 115.848 L 191.933 117.802 L 192.145 119.959 L 192.145 120.447 L 192.357 122.523 L 192.357 124.965 L 192.568 126.634 L 192.568 128.343 L 192.78 128.099 L 192.78 132.21 L 192.992 133.431 L 192.992 133.146 L 193.203 136.32 L 193.203 138.844 L 193.415 140.757 L 193.415 141.978 L 193.627 143.158 L 193.627 146.414 L 193.838 147.065 L 193.838 147.309 L 194.05 150.036 L 194.05 150.972 L 194.262 153.455 L 194.262 156.263 L 194.474 156.833 L 194.474 158.38 L 194.685 160.089 L 194.685 162.938 L 194.897 161.839 L 194.897 161.554 L 195.109 163.915 L 195.109 163.793 L 195.32 164.607 L 195.32 165.746 L 195.532 166.845 L 195.532 167.7 L 195.744 168.026 L 195.744 169.857 L 195.955 169.287 L 195.955 170.427 L 196.167 170.793 L 196.167 169.694 L 196.379 171.933 L 196.379 171.729 L 196.59 172.258 L 196.59 172.503 L 196.802 171.729 L 196.802 173.683 L 197.014 173.195 L 197.014 173.846 L 197.225 175.433 L 197.225 175.352 L 197.437 175.718 L 197.437 175.107 L 197.649 175.596 L 197.649 177.061 L 197.86 178.282 L 197.86 179.096 L 198.072 178.323 L 198.072 178.119 L 198.284 177.997 L 198.284 178.689 L 198.495 178.73 L 198.495 179.259 L 198.707 180.602 L 198.707 180.683 L 198.919 181.172 L 198.919 181.212 L 199.13 181.497 L 199.13 182.352 L 199.342 182.718 L 199.342 183.451 L 199.554 184.468 L 199.554 184.428 L 199.765 184.346 L 199.765 184.916 L 199.977 185.689 L 199.977 186.015 L 200.189 186.219 L 200.189 184.468 L 200.4 185.893 L 200.4 186.544 L 200.612 184.875 L 200.612 185.282 L 200.824 184.713 L 200.824 185.201 L 201.035 185.689 L 201.035 186.015 L 201.247 186.788 L 201.247 186.544 L 201.459 186.91 L 201.459 187.033 L 201.67 186.91 L 201.67 187.399 L 201.882 187.195 L 286.973 187.643" fill="none" mask="url(#_mask_stNaTw4ffll8SmYqgNuAlGn6Edakppcm)" vector-effect="non-scaling-stroke" stroke-width="1.145" stroke="rgb(51,102,204)" stroke-linejoin="miter" stroke-linecap="butt" stroke-miterlimit="4"/></g></g></g><g><g><g clip-path="url(#_clipPath_h6VFFVwF0F62qHsdSrZ3RWm7nZLa66Ox)"><text transform="matrix(0.273,0,0,0.306,61.811,196.35)" style="font-family:'Arial';font-weight:700;font-size:16px;font-style:normal;font-variant-ligatures:none;fill:[Object GRGBColor];stroke:none;">0</text></g><defs><clipPath id="_clipPath_h6VFFVwF0F62qHsdSrZ3RWm7nZLa66Ox"><rect x="0" y="0" width="11" height="17.875" transform="matrix(0.273,0,0,0.306,61.811,191.924)"/></clipPath></defs></g><g><g clip-path="url(#_clipPath_D3JKpz0CTLOQxEL4ZDTfr5cGl9HyGJTt)"><text transform="matrix(0.273,0,0,0.306,104.144,196.35)" style="font-family:'Arial';font-weight:700;font-size:16px;font-style:normal;font-variant-ligatures:none;fill:[Object GRGBColor];stroke:none;">2</text></g><defs><clipPath id="_clipPath_D3JKpz0CTLOQxEL4ZDTfr5cGl9HyGJTt"><rect x="0" y="0" width="11" height="17.875" transform="matrix(0.273,0,0,0.306,104.144,191.924)"/></clipPath></defs></g><g><g clip-path="url(#_clipPath_cmnXbwnPWZNH2v91tU9HcWkWaXzCMzVE)"><text transform="matrix(0.273,0,0,0.306,146.478,196.35)" style="font-family:'Arial';font-weight:700;font-size:16px;font-style:normal;font-variant-ligatures:none;fill:[Object GRGBColor];stroke:none;">4</text></g><defs><clipPath id="_clipPath_cmnXbwnPWZNH2v91tU9HcWkWaXzCMzVE"><rect x="0" y="0" width="11" height="17.875" transform="matrix(0.273,0,0,0.306,146.478,191.924)"/></clipPath></defs></g><g><g clip-path="url(#_clipPath_yO7XAq1B7JVqYKlEBt3H009OMfy1a98l)"><text transform="matrix(0.273,0,0,0.306,188.812,196.35)" style="font-family:'Arial';font-weight:700;font-size:16px;font-style:normal;font-variant-ligatures:none;fill:[Object GRGBColor];stroke:none;">6</text></g><defs><clipPath id="_clipPath_yO7XAq1B7JVqYKlEBt3H009OMfy1a98l"><rect x="0" y="0" width="11" height="17.875" transform="matrix(0.273,0,0,0.306,188.812,191.924)"/></clipPath></defs></g><g><g clip-path="url(#_clipPath_VpZ6opQeH4cnKyGcYpYZeoIGA5Cn9kvS)"><text transform="matrix(0.273,0,0,0.306,231.146,196.35)" style="font-family:'Arial';font-weight:700;font-size:16px;font-style:normal;font-variant-ligatures:none;fill:[Object GRGBColor];stroke:none;">8</text></g><defs><clipPath id="_clipPath_VpZ6opQeH4cnKyGcYpYZeoIGA5Cn9kvS"><rect x="0" y="0" width="11" height="17.875" transform="matrix(0.273,0,0,0.306,231.146,191.924)"/></clipPath></defs></g><g><g clip-path="url(#_clipPath_HNUcrtHb8yi8tjkQOxprfSjAC4BNp0ue)"><text transform="matrix(0.273,0,0,0.306,272.263,196.35)" style="font-family:'Arial';font-weight:700;font-size:16px;font-style:normal;font-variant-ligatures:none;fill:[Object GRGBColor];stroke:none;">10</text></g><defs><clipPath id="_clipPath_HNUcrtHb8yi8tjkQOxprfSjAC4BNp0ue"><rect x="0" y="0" width="20" height="17.875" transform="matrix(0.273,0,0,0.306,272.263,191.924)"/></clipPath></defs></g><g><g clip-path="url(#_clipPath_mHVzhbZdcjpzIitbqvct1yGR6p5Dr4cu)"><text transform="matrix(0.273,0,0,0.306,56.082,190.697)" style="font-family:'Arial';font-weight:700;font-size:16px;font-style:normal;font-variant-ligatures:none;fill:[Object GRGBColor];stroke:none;">0</text></g><defs><clipPath id="_clipPath_mHVzhbZdcjpzIitbqvct1yGR6p5Dr4cu"><rect x="0" y="0" width="11" height="17.875" transform="matrix(0.273,0,0,0.306,56.082,186.271)"/></clipPath></defs></g><g><g clip-path="url(#_clipPath_A88kBhGqbktoyKXClr9zIl5CrGHXT5BR)"><text transform="matrix(0.273,0,0,0.306,56.082,177.131)" style="font-family:'Arial';font-weight:700;font-size:16px;font-style:normal;font-variant-ligatures:none;fill:[Object GRGBColor];stroke:none;">1</text></g><defs><clipPath id="_clipPath_A88kBhGqbktoyKXClr9zIl5CrGHXT5BR"><rect x="0" y="0" width="11" height="17.875" transform="matrix(0.273,0,0,0.306,56.082,172.705)"/></clipPath></defs></g><g><g clip-path="url(#_clipPath_SY72PeyYFKw7f8hevOToOyI8Yv6ENQMD)"><text transform="matrix(0.273,0,0,0.306,56.082,163.564)" style="font-family:'Arial';font-weight:700;font-size:16px;font-style:normal;font-variant-ligatures:none;fill:[Object GRGBColor];stroke:none;">2</text></g><defs><clipPath id="_clipPath_SY72PeyYFKw7f8hevOToOyI8Yv6ENQMD"><rect x="0" y="0" width="11" height="17.875" transform="matrix(0.273,0,0,0.306,56.082,159.138)"/></clipPath></defs></g><g><g clip-path="url(#_clipPath_ARVGGgcjjEnGOYXwM27Ge6UXXbflVGi7)"><text transform="matrix(0.273,0,0,0.306,56.082,149.997)" style="font-family:'Arial';font-weight:700;font-size:16px;font-style:normal;font-variant-ligatures:none;fill:[Object GRGBColor];stroke:none;">3</text></g><defs><clipPath id="_clipPath_ARVGGgcjjEnGOYXwM27Ge6UXXbflVGi7"><rect x="0" y="0" width="11" height="17.875" transform="matrix(0.273,0,0,0.306,56.082,145.571)"/></clipPath></defs></g><g><g clip-path="url(#_clipPath_77IePkonoMW8LjG5D5ZATNIMdSeQd7K6)"><text transform="matrix(0.273,0,0,0.306,56.082,136.431)" style="font-family:'Arial';font-weight:700;font-size:16px;font-style:normal;font-variant-ligatures:none;fill:[Object GRGBColor];stroke:none;">4</text></g><defs><clipPath id="_clipPath_77IePkonoMW8LjG5D5ZATNIMdSeQd7K6"><rect x="0" y="0" width="11" height="17.875" transform="matrix(0.273,0,0,0.306,56.082,132.005)"/></clipPath></defs></g><g><g clip-path="url(#_clipPath_BU54xFvbdjdzQX3xhGg6yQ3u1XFPvTMv)"><text transform="matrix(0.273,0,0,0.306,56.082,122.864)" style="font-family:'Arial';font-weight:700;font-size:16px;font-style:normal;font-variant-ligatures:none;fill:[Object GRGBColor];stroke:none;">5</text></g><defs><clipPath id="_clipPath_BU54xFvbdjdzQX3xhGg6yQ3u1XFPvTMv"><rect x="0" y="0" width="11" height="17.875" transform="matrix(0.273,0,0,0.306,56.082,118.438)"/></clipPath></defs></g><g><g clip-path="url(#_clipPath_8S9O4YlqJNGhenLEdz9O2FsDSAqYOfNA)"><text transform="matrix(0.273,0,0,0.306,56.082,109.297)" style="font-family:'Arial';font-weight:700;font-size:16px;font-style:normal;font-variant-ligatures:none;fill:[Object GRGBColor];stroke:none;">6</text></g><defs><clipPath id="_clipPath_8S9O4YlqJNGhenLEdz9O2FsDSAqYOfNA"><rect x="0" y="0" width="11" height="17.875" transform="matrix(0.273,0,0,0.306,56.082,104.871)"/></clipPath></defs></g><g><g clip-path="url(#_clipPath_82iDXQ0GLr9LihdY14bbv3NWMXF2EDqH)"><text transform="matrix(0.273,0,0,0.306,56.082,95.731)" style="font-family:'Arial';font-weight:700;font-size:16px;font-style:normal;font-variant-ligatures:none;fill:[Object GRGBColor];stroke:none;">7</text></g><defs><clipPath id="_clipPath_82iDXQ0GLr9LihdY14bbv3NWMXF2EDqH"><rect x="0" y="0" width="11" height="17.875" transform="matrix(0.273,0,0,0.306,56.082,91.305)"/></clipPath></defs></g><g><g clip-path="url(#_clipPath_CvyJ09bHtfqNl4cHlNoKA32aFyjWUh4J)"><text transform="matrix(0.273,0,0,0.306,56.082,82.164)" style="font-family:'Arial';font-weight:700;font-size:16px;font-style:normal;font-variant-ligatures:none;fill:[Object GRGBColor];stroke:none;">8</text></g><defs><clipPath id="_clipPath_CvyJ09bHtfqNl4cHlNoKA32aFyjWUh4J"><rect x="0" y="0" width="11" height="17.875" transform="matrix(0.273,0,0,0.306,56.082,77.738)"/></clipPath></defs></g><g><g clip-path="url(#_clipPath_VF9uztcYhDZI7V3nRuYKHkElDlQAdaeM)"><text transform="matrix(0.273,0,0,0.306,56.082,68.597)" style="font-family:'Arial';font-weight:700;font-size:16px;font-style:normal;font-variant-ligatures:none;fill:[Object GRGBColor];stroke:none;">9</text></g><defs><clipPath id="_clipPath_VF9uztcYhDZI7V3nRuYKHkElDlQAdaeM"><rect x="0" y="0" width="11" height="17.875" transform="matrix(0.273,0,0,0.306,56.082,64.171)"/></clipPath></defs></g><g><g clip-path="url(#_clipPath_dM9mzfQD6LfhUHwttCWjOHiehScPo9rC)"><text transform="matrix(0.273,0,0,0.306,53.649,55.031)" style="font-family:'Arial';font-weight:700;font-size:16px;font-style:normal;font-variant-ligatures:none;fill:[Object GRGBColor];stroke:none;">10</text></g><defs><clipPath id="_clipPath_dM9mzfQD6LfhUHwttCWjOHiehScPo9rC"><rect x="0" y="0" width="20" height="17.875" transform="matrix(0.273,0,0,0.306,53.649,50.605)"/></clipPath></defs></g></g></g><g><g><g clip-path="url(#_clipPath_ckwyZW370MV33iapJES6SZfWyXMtPvoz)"><text transform="matrix(0.273,0,0,0.306,164.548,215.753)" style="font-family:'Arial';font-weight:700;font-size:16px;font-style:normal;font-variant-ligatures:none;fill:[Object GRGBColor];stroke:none;">Tempo (s)</text></g><defs><clipPath id="_clipPath_ckwyZW370MV33iapJES6SZfWyXMtPvoz"><rect x="0" y="0" width="79" height="17.875" transform="matrix(0.273,0,0,0.306,164.548,211.327)"/></clipPath></defs><rect x="62.891" y="211.597" width="224.219" height="4.889" transform="matrix(1,0,0,1,0,0)" fill="none"/></g><g><g clip-path="url(#_clipPath_xmhkEaYuYhpaAoDs6TUrZpiMKKMkTuV9)"><text transform="matrix(0,-0.306,0.273,0,28.328,131.882)" style="font-family:'Arial';font-weight:700;font-size:16px;font-style:normal;font-variant-ligatures:none;fill:[Object GRGBColor];stroke:none;">Força (N)</text></g><defs><clipPath id="_clipPath_xmhkEaYuYhpaAoDs6TUrZpiMKKMkTuV9"><rect x="0" y="0" width="73" height="17.875" transform="matrix(0,-0.306,0.273,0,24.368,131.882)"/></clipPath></defs><path d=" M 24.609 189.139 L 24.609 53.167 L 28.984 53.167 L 28.984 189.139 L 24.609 189.139 Z " fill="none"/></g></g></g><g clip-path="url(#_clipPath_9Vv9VuQapMmQzopixHZlvakhv4TnFSu6)"><text transform="matrix(1,0,0,1,34.117,27.341)" style="font-family:'Open Sans';font-weight:700;font-size:20px;font-style:normal;fill:#000000;stroke:none;">APLICAÇÃO CURVA-EMPUXO</text></g><defs><clipPath id="_clipPath_9Vv9VuQapMmQzopixHZlvakhv4TnFSu6"><rect x="0" y="0" width="293" height="27.236" transform="matrix(1,0,0,1,28.5,5.964)"/></clipPath></defs><g clip-path="url(#_clipPath_d3kqvbi9DdssR4CbxqlWInaXGKrTARNY)"><text transform="matrix(1,0,0,1,253.185,42.82)" style="font-family:'Open Sans';font-weight:400;font-size:9px;font-style:normal;fill:#000000;stroke:none;">NEW VERSION</text></g><defs><clipPath id="_clipPath_d3kqvbi9DdssR4CbxqlWInaXGKrTARNY"><rect x="0" y="0" width="75" height="13" transform="matrix(1,0,0,1,246.5,33.2)"/></clipPath></defs></g></svg>